solid ascii_stl
  facet normal -0.500874 0.8655202 0
    outer loop
      vertex 216.60693359375 -8.35247802734375 1.0649537214536473E-13
      vertex 108.4446029663086 -70.9457015991211 -2.7711166694643907E-13
      vertex 108.4446029663086 -70.9457015991211 21.945600509643555
    endloop
  endfacet
  facet normal 0.8655202 0.5008741 0
    outer loop
      vertex 279.0876159667969 -116.3203125 1.541791650946922E-12
      vertex 216.60693359375 -8.35247802734375 1.0649537214536473E-13
      vertex 216.60693359375 -8.35247802734375 21.945600509643555
    endloop
  endfacet
  facet normal 0.500874 -0.86552024 0
    outer loop
      vertex 279.0876159667969 -116.3203125 21.945600509643555
      vertex 225.00643920898438 -147.61692810058594 1.3499881551179427E-12
      vertex 279.0876159667969 -116.3203125 1.541791650946922E-12
    endloop
  endfacet
  facet normal 0.5008741 -0.8655202 0
    outer loop
      vertex 170.92527770996094 -178.91354370117188 1.1581846592889633E-12
      vertex 225.00643920898438 -147.61692810058594 1.3499881551179427E-12
      vertex 170.92527770996094 -178.91354370117188 21.945600509643555
    endloop
  endfacet
  facet normal 0.50087404 -0.8655202 -1.74129E-07
    outer loop
      vertex 279.0876159667969 -116.3203125 21.945600509643555
      vertex 170.92527770996094 -178.91354370117188 21.945600509643555
      vertex 225.00643920898438 -147.61692810058594 1.3499881551179427E-12
    endloop
  endfacet
  facet normal -0.8655202 -0.50087404 0
    outer loop
      vertex 108.4446029663086 -70.9457015991211 -2.7711166694643907E-13
      vertex 170.92527770996094 -178.91354370117188 1.1581846592889633E-12
      vertex 108.4446029663086 -70.9457015991211 21.945600509643555
    endloop
  endfacet
  facet normal -0 0 1
    outer loop
      vertex 108.4446029663086 -70.9457015991211 21.945600509643555
      vertex 170.92527770996094 -178.91354370117188 21.945600509643555
      vertex 216.60693359375 -8.35247802734375 21.945600509643555
    endloop
  endfacet
  facet normal -0.50087404 0.8655202 0
    outer loop
      vertex -4.2890729904174805 -136.18435668945312 21.945600509643555
      vertex 87.33975982666016 -83.15901184082031 21.945600509643555
      vertex 87.33975982666016 -83.15901184082031 5.329070518200751E-15
    endloop
  endfacet
  facet normal -0.94829893 -0.3173785 0
    outer loop
      vertex 36.12051773071289 -256.9246520996094 21.945600509643555
      vertex -4.2890729904174805 -136.18435668945312 21.945600509643555
      vertex -4.2890729904174805 -136.18435668945312 5.329070518200751E-15
    endloop
  endfacet
  facet normal 0.500874 -0.86552024 0
    outer loop
      vertex 149.8204345703125 -191.12684631347656 21.945600509643555
      vertex 36.12051773071289 -256.9246520996094 21.945600509643555
      vertex 36.12051773071289 -256.9246520996094 5.329070518200751E-15
    endloop
  endfacet
  facet normal 0.8655202 0.50087404 0
    outer loop
      vertex 87.33975982666016 -83.15901184082031 21.945600509643555
      vertex 149.8204345703125 -191.12684631347656 21.945600509643555
      vertex 149.8204345703125 -191.12684631347656 5.329070518200751E-15
    endloop
  endfacet
  facet normal 0 0 1
    outer loop
      vertex -4.2890729904174805 -136.18435668945312 21.945600509643555
      vertex 36.12051773071289 -256.9246520996094 21.945600509643555
      vertex 149.8204345703125 -191.12684631347656 21.945600509643555
    endloop
  endfacet
  facet normal 0 0 1
    outer loop
      vertex -106.65308380126953 -149.092041015625 10.972800254821777
      vertex -186.59463500976562 -176.0367889404297 10.972800254821777
      vertex -149.8345947265625 -285.87255859375 10.972800254821777
    endloop
  endfacet
  facet normal 0 0 1
    outer loop
      vertex -24.247262954711914 -148.0424041748047 10.972800254821777
      vertex -106.65308380126953 -149.092041015625 10.972800254821777
      vertex 13.675065994262695 -263.2293701171875 10.972800254821777
    endloop
  endfacet
  facet normal 0 0 1
    outer loop
      vertex -149.8345947265625 -285.87255859375 10.972800254821777
      vertex 13.675065994262695 -263.2293701171875 10.972800254821777
      vertex -106.65308380126953 -149.092041015625 10.972800254821777
    endloop
  endfacet
  facet normal -0.012736378 0.9999189 0
    outer loop
      vertex -106.65308380126953 -149.092041015625 10.972800254821777
      vertex -24.247262954711914 -148.0424041748047 10.972800254821777
      vertex -24.247262954711914 -148.0424041748047 1.7763568394002505E-15
    endloop
  endfacet
  facet normal -0.31940058 0.9476198 0
    outer loop
      vertex -186.59463500976562 -176.0367889404297 10.972800254821777
      vertex -106.65308380126953 -149.092041015625 10.972800254821777
      vertex -106.65308380126953 -149.092041015625 1.7763568394002505E-15
    endloop
  endfacet
  facet normal -0.94829893 -0.31737846 0
    outer loop
      vertex -149.8345947265625 -285.87255859375 10.972800254821777
      vertex -186.59463500976562 -176.0367889404297 10.972800254821777
      vertex -186.59463500976562 -176.0367889404297 1.7763568394002505E-15
    endloop
  endfacet
  facet normal 0.1371732 -0.99054706 0
    outer loop
      vertex 13.675065994262695 -263.2293701171875 10.972800254821777
      vertex -149.8345947265625 -285.87255859375 10.972800254821777
      vertex -149.8345947265625 -285.87255859375 1.7763568394002505E-15
    endloop
  endfacet
  facet normal 0.94984776 0.3127128 0
    outer loop
      vertex -24.247262954711914 -148.0424041748047 10.972800254821777
      vertex 13.675065994262695 -263.2293701171875 10.972800254821777
      vertex 13.675065994262695 -263.2293701171875 1.7763568394002505E-15
    endloop
  endfacet
  facet normal 0.32063457 -0.947203 -2.454415E-08
    outer loop
      vertex -140.6090087890625 -136.21531677246094 0
      vertex -92.845458984375 -120.04703521728516 47.54880142211914
      vertex -188.37257385253906 -152.38360595703125 47.54880142211914
    endloop
  endfacet
  facet normal 0.3206346 -0.947203 0
    outer loop
      vertex -188.37257385253906 -152.38360595703125 47.54880142211914
      vertex -188.37257385253906 -152.38360595703125 0
      vertex -140.6090087890625 -136.21531677246094 0
    endloop
  endfacet
  facet normal 0.32063454 -0.947203 0
    outer loop
      vertex -92.845458984375 -120.04703521728516 47.54880142211914
      vertex -140.6090087890625 -136.21531677246094 0
      vertex -92.845458984375 -120.04703521728516 0
    endloop
  endfacet
  facet normal -0.32063404 0.94720316 2.3243084E-07
    outer loop
      vertex -154.6975860595703 -118.45914459228516 27.464550018310547
      vertex -174.9556427001953 -125.31661987304688 27.464550018310547
      vertex -154.69760131835938 -118.45915222167969 37.506675720214844
    endloop
  endfacet
  facet normal -0.32063457 0.947203 7.1962705E-07
    outer loop
      vertex -154.6975860595703 -118.45913696289062 17.42242431640625
      vertex -174.95562744140625 -125.31661987304688 17.42242431640625
      vertex -154.6975860595703 -118.45914459228516 27.464550018310547
    endloop
  endfacet
  facet normal -0.32063404 0.94720316 0
    outer loop
      vertex -134.4395294189453 -111.60166931152344 27.464550018310547
      vertex -154.6975860595703 -118.45914459228516 27.464550018310547
      vertex -134.4395294189453 -111.60166931152344 37.506675720214844
    endloop
  endfacet
  facet normal -0.32063404 0.94720316 7.1962717E-07
    outer loop
      vertex -134.4395294189453 -111.6016616821289 17.42242431640625
      vertex -154.6975860595703 -118.45913696289062 17.42242431640625
      vertex -134.4395294189453 -111.60166931152344 27.464550018310547
    endloop
  endfacet
  facet normal -0.32063404 0.94720316 9.5205803E-07
    outer loop
      vertex -174.95565795898438 -125.3166275024414 37.506675720214844
      vertex -195.21372985839844 -132.1741180419922 47.54880142211914
      vertex -154.69760131835938 -118.45915222167969 37.506675720214844
    endloop
  endfacet
  facet normal -0.32063425 0.9472031 0
    outer loop
      vertex -114.18147277832031 -104.74418640136719 47.54880142211914
      vertex -154.69760131835938 -118.45915222167969 37.506675720214844
      vertex -195.21372985839844 -132.1741180419922 47.54880142211914
    endloop
  endfacet
  facet normal -0.32063434 0.94720304 2.3243027E-07
    outer loop
      vertex -174.9556427001953 -125.31661987304688 27.464550018310547
      vertex -195.21372985839844 -132.1741180419922 47.54880142211914
      vertex -174.95565795898438 -125.3166275024414 37.506675720214844
    endloop
  endfacet
  facet normal -0.3206337 0.9472033 -4.8719585E-07
    outer loop
      vertex -174.95562744140625 -125.31661987304688 17.42242431640625
      vertex -195.2136688232422 -132.17408752441406 7.380297660827637
      vertex -174.9556427001953 -125.31661987304688 27.464550018310547
    endloop
  endfacet
  facet normal -0.32063434 0.94720304 2.3243025E-07
    outer loop
      vertex -195.21372985839844 -132.1741180419922 47.54880142211914
      vertex -174.9556427001953 -125.31661987304688 27.464550018310547
      vertex -195.2136688232422 -132.17408752441406 7.380297660827637
    endloop
  endfacet
  facet normal -0.32063457 0.947203 1.439254E-06
    outer loop
      vertex -154.6975860595703 -118.45913696289062 17.42242431640625
      vertex -195.2136688232422 -132.17408752441406 7.380297660827637
      vertex -174.95562744140625 -125.31661987304688 17.42242431640625
    endloop
  endfacet
  facet normal -0.32063434 0.94720304 0
    outer loop
      vertex -134.4395294189453 -111.60166931152344 27.464550018310547
      vertex -134.4395294189453 -111.60166931152344 37.506675720214844
      vertex -114.18147277832031 -104.74418640136719 47.54880142211914
    endloop
  endfacet
  facet normal -0.32063413 0.9472031 -4.8719653E-07
    outer loop
      vertex -154.69760131835938 -118.45915222167969 37.506675720214844
      vertex -114.18147277832031 -104.74418640136719 47.54880142211914
      vertex -134.4395294189453 -111.60166931152344 37.506675720214844
    endloop
  endfacet
  facet normal -0.32063434 0.94720304 0
    outer loop
      vertex -114.18147277832031 -104.74418640136719 7.380297660827637
      vertex -134.4395294189453 -111.60166931152344 27.464550018310547
      vertex -114.18147277832031 -104.74418640136719 47.54880142211914
    endloop
  endfacet
  facet normal -0.32063404 0.94720316 0
    outer loop
      vertex -114.18147277832031 -104.74418640136719 7.380297660827637
      vertex -154.6975860595703 -118.45913696289062 17.42242431640625
      vertex -134.4395294189453 -111.6016616821289 17.42242431640625
    endloop
  endfacet
  facet normal -0.3206337 0.9472033 7.196273E-07
    outer loop
      vertex -134.4395294189453 -111.60166931152344 27.464550018310547
      vertex -114.18147277832031 -104.74418640136719 7.380297660827637
      vertex -134.4395294189453 -111.6016616821289 17.42242431640625
    endloop
  endfacet
  facet normal -0.32063413 0.9472031 -4.871965E-07
    outer loop
      vertex -195.2136688232422 -132.17408752441406 7.380297660827637
      vertex -154.6975860595703 -118.45913696289062 17.42242431640625
      vertex -114.18147277832031 -104.74418640136719 7.380297660827637
    endloop
  endfacet
  facet normal -1 2.1200819E-07 0
    outer loop
      vertex -114.18145751953125 -32.77154541015625 7.380297660827637
      vertex -114.18147277832031 -104.74418640136719 7.380297660827637
      vertex -114.18147277832031 -104.74418640136719 47.54880142211914
    endloop
  endfacet
  facet normal 0 1 0
    outer loop
      vertex -92.845458984375 -32.77154541015625 7.380297660827637
      vertex -114.18145751953125 -32.77154541015625 7.380297660827637
      vertex -114.18145751953125 -32.77154541015625 47.54880142211914
    endloop
  endfacet
  facet normal -0.41686174 0.90896994 0
    outer loop
      vertex -245.6200408935547 16.733253479003906 7.380297660827637
      vertex -92.845458984375 86.79704284667969 7.380297660827637
      vertex -92.845458984375 86.79704284667969 0
    endloop
  endfacet
  facet normal 0 -0 1
    outer loop
      vertex -195.2136688232422 -132.17408752441406 7.380297660827637
      vertex -114.18145751953125 -32.77154541015625 7.380297660827637
      vertex -245.6200408935547 16.733253479003906 7.380297660827637
    endloop
  endfacet
  facet normal 0 -0 1
    outer loop
      vertex -114.18147277832031 -104.74418640136719 7.380297660827637
      vertex -114.18145751953125 -32.77154541015625 7.380297660827637
      vertex -195.2136688232422 -132.17408752441406 7.380297660827637
    endloop
  endfacet
  facet normal 0 0 1
    outer loop
      vertex -92.845458984375 86.79704284667969 7.380297660827637
      vertex -114.18145751953125 -32.77154541015625 7.380297660827637
      vertex -92.845458984375 -32.77154541015625 7.380297660827637
    endloop
  endfacet
  facet normal -0 0 1
    outer loop
      vertex -245.6200408935547 16.733253479003906 7.380297660827637
      vertex -114.18145751953125 -32.77154541015625 7.380297660827637
      vertex -92.845458984375 86.79704284667969 7.380297660827637
    endloop
  endfacet
  facet normal 1 0 0
    outer loop
      vertex -92.845458984375 -120.04703521728516 47.54880142211914
      vertex -92.845458984375 -120.04703521728516 0
      vertex -92.845458984375 -32.77154541015625 7.380297660827637
    endloop
  endfacet
  facet normal 1 0 0
    outer loop
      vertex -92.845458984375 -120.04703521728516 0
      vertex -92.845458984375 86.79704284667969 0
      vertex -92.845458984375 -32.77154541015625 7.380297660827637
    endloop
  endfacet
  facet normal 0 0 1
    outer loop
      vertex -114.18147277832031 -104.74418640136719 47.54880142211914
      vertex -195.21372985839844 -132.1741180419922 47.54880142211914
      vertex -188.37257385253906 -152.38360595703125 47.54880142211914
    endloop
  endfacet
  facet normal 0 0 1
    outer loop
      vertex -92.845458984375 -120.04703521728516 47.54880142211914
      vertex -114.18147277832031 -104.74418640136719 47.54880142211914
      vertex -188.37257385253906 -152.38360595703125 47.54880142211914
    endloop
  endfacet
  facet normal -0 0 1
    outer loop
      vertex -114.18145751953125 -32.77154541015625 47.54880142211914
      vertex -114.18147277832031 -104.74418640136719 47.54880142211914
      vertex -92.845458984375 -32.77154541015625 47.54880142211914
    endloop
  endfacet
  facet normal 0 -0 1
    outer loop
      vertex -92.845458984375 -120.04703521728516 47.54880142211914
      vertex -92.845458984375 -32.77154541015625 47.54880142211914
      vertex -114.18147277832031 -104.74418640136719 47.54880142211914
    endloop
  endfacet
  facet normal -0.94720244 -0.32063612 0
    outer loop
      vertex -195.2136688232422 -132.17408752441406 7.380297660827637
      vertex -188.37257385253906 -152.38360595703125 0
      vertex -188.37257385253906 -152.38360595703125 47.54880142211914
    endloop
  endfacet
  facet normal -0.94720143 -0.32063913 -1.6828537E-06
    outer loop
      vertex -195.21372985839844 -132.1741180419922 47.54880142211914
      vertex -195.2136688232422 -132.17408752441406 7.380297660827637
      vertex -188.37257385253906 -152.38360595703125 47.54880142211914
    endloop
  endfacet
  facet normal -0.9472025 -0.3206359 0
    outer loop
      vertex -195.2136688232422 -132.17408752441406 7.380297660827637
      vertex -245.6200408935547 16.733253479003906 7.380297660827637
      vertex -245.6200408935547 16.733253479003906 0
    endloop
  endfacet
  facet normal 0.8639121 0.50364256 0
    outer loop
      vertex -190.63540649414062 101.75467681884766 10.972800254821777
      vertex -174.0176239013672 73.2497329711914 10.972800254821777
      vertex -174.0176239013672 73.2497329711914 -8.881784197001252E-16
    endloop
  endfacet
  facet normal -0.31885046 0.94780505 0
    outer loop
      vertex -234.02236938476562 87.15889739990234 10.972800254821777
      vertex -190.63540649414062 101.75467681884766 10.972800254821777
      vertex -190.63540649414062 101.75467681884766 -8.881784197001252E-16
    endloop
  endfacet
  facet normal -0.86871624 0.49531016 0
    outer loop
      vertex -257.94293212890625 45.205020904541016 10.972800254821777
      vertex -234.02236938476562 87.15889739990234 10.972800254821777
      vertex -234.02236938476562 87.15889739990234 -8.881784197001252E-16
    endloop
  endfacet
  facet normal 0.31693566 -0.94844705 0
    outer loop
      vertex -174.0176239013672 73.2497329711914 10.972800254821777
      vertex -257.94293212890625 45.205020904541016 10.972800254821777
      vertex -257.94293212890625 45.205020904541016 -8.881784197001252E-16
    endloop
  endfacet
  facet normal 0 0 1
    outer loop
      vertex -257.94293212890625 45.205020904541016 10.972800254821777
      vertex -174.0176239013672 73.2497329711914 10.972800254821777
      vertex -234.02236938476562 87.15889739990234 10.972800254821777
    endloop
  endfacet
  facet normal 0 0 1
    outer loop
      vertex -28.643129348754883 163.5083770751953 9.448800086975098
      vertex -215.66107177734375 160.24789428710938 9.448800086975098
      vertex -170.3004913330078 81.16328430175781 9.448800086975098
    endloop
  endfacet
  facet normal 0 0 1
    outer loop
      vertex -39.4057502746582 183.01316833496094 9.448800086975098
      vertex -131.98851013183594 208.23997497558594 9.448800086975098
      vertex -28.643129348754883 163.5083770751953 9.448800086975098
    endloop
  endfacet
  facet normal 0 0 1
    outer loop
      vertex -215.66107177734375 160.24789428710938 9.448800086975098
      vertex -28.643129348754883 163.5083770751953 9.448800086975098
      vertex -131.98851013183594 208.23997497558594 9.448800086975098
    endloop
  endfacet
  facet normal 0.87555194 0.48312405 0
    outer loop
      vertex -39.4057502746582 183.01316833496094 9.448800086975098
      vertex -28.643129348754883 163.5083770751953 9.448800086975098
      vertex -28.643129348754883 163.5083770751953 0
    endloop
  endfacet
  facet normal 0.26289394 0.96482474 0
    outer loop
      vertex -131.98851013183594 208.23997497558594 9.448800086975098
      vertex -39.4057502746582 183.01316833496094 9.448800086975098
      vertex -39.4057502746582 183.01316833496094 0
    endloop
  endfacet
  facet normal -0.4975387 0.8674418 0
    outer loop
      vertex -215.66107177734375 160.24789428710938 9.448800086975098
      vertex -131.98851013183594 208.23997497558594 9.448800086975098
      vertex -131.98851013183594 208.23997497558594 0
    endloop
  endfacet
  facet normal -0.8674417 -0.49753878 0
    outer loop
      vertex -170.3004913330078 81.16328430175781 9.448800086975098
      vertex -215.66107177734375 160.24789428710938 9.448800086975098
      vertex -215.66107177734375 160.24789428710938 0
    endloop
  endfacet
  facet normal 0.50255734 -0.86454386 0
    outer loop
      vertex -28.643129348754883 163.5083770751953 9.448800086975098
      vertex -170.3004913330078 81.16328430175781 9.448800086975098
      vertex -170.3004913330078 81.16328430175781 0
    endloop
  endfacet
  facet normal 0.27009153 0.96283466 0
    outer loop
      vertex 92.77774047851562 133.18112182617188 18.288000106811523
      vertex 166.29901123046875 112.5571517944336 18.288000106811523
      vertex 166.29901123046875 112.5571517944336 -1.7763568394002505E-15
    endloop
  endfacet
  facet normal 0.5488496 -0.83592117 0
    outer loop
      vertex 217.09483337402344 35.192935943603516 18.288000106811523
      vertex 92.77774047851562 -46.43124771118164 18.288000106811523
      vertex 92.77774047851562 -46.43124771118164 -1.7763568394002505E-15
    endloop
  endfacet
  facet normal 0.8359212 0.5488494 0
    outer loop
      vertex 166.29901123046875 112.5571517944336 18.288000106811523
      vertex 217.09483337402344 35.192935943603516 18.288000106811523
      vertex 217.09483337402344 35.192935943603516 -1.7763568394002505E-15
    endloop
  endfacet
  facet normal 0 0 1
    outer loop
      vertex 217.09483337402344 35.192935943603516 18.288000106811523
      vertex 166.29901123046875 112.5571517944336 18.288000106811523
      vertex 92.77774047851562 133.18112182617188 18.288000106811523
    endloop
  endfacet
  facet normal -1 0 0
    outer loop
      vertex 92.77774047851562 -46.43124771118164 -1.7763568394002505E-15
      vertex 92.77774047851562 -46.43124771118164 18.288000106811523
      vertex 92.77774047851562 133.18112182617188 18.288000106811523
    endloop
  endfacet
  facet normal 0 1 0
    outer loop
      vertex 63.84400939941406 52.29695129394531 18.72783660888672
      vertex 68.84890747070312 52.29695129394531 17.95203971862793
      vertex 64.36971282958984 52.29695129394531 15.619125366210938
    endloop
  endfacet
  facet normal -0 1 0
    outer loop
      vertex 46.0573844909668 52.29695129394531 18.295639038085938
      vertex 63.84400939941406 52.29695129394531 18.72783660888672
      vertex 64.36971282958984 52.29695129394531 15.619125366210938
    endloop
  endfacet
  facet normal 0 1 0
    outer loop
      vertex 46.0573844909668 52.29695129394531 18.295639038085938
      vertex 46.0573844909668 52.29695129394531 21.3275146484375
      vertex 63.84400939941406 52.29695129394531 18.72783660888672
    endloop
  endfacet
  facet normal 0 1 -0
    outer loop
      vertex 68.84890747070312 52.29695129394531 17.95203971862793
      vertex 63.84400939941406 52.29695129394531 18.72783660888672
      vertex 68.84890747070312 52.29695129394531 21.33455467224121
    endloop
  endfacet
  facet normal 0 -1 0
    outer loop
      vertex 46.0573844909668 -52.306854248046875 21.3275146484375
      vertex 46.0573844909668 -52.306854248046875 18.295639038085938
      vertex 63.84400939941406 -52.306854248046875 18.72783660888672
    endloop
  endfacet
  facet normal 0 -1 0
    outer loop
      vertex 64.36971282958984 -52.306854248046875 15.619125366210938
      vertex 63.84400939941406 -52.306854248046875 18.72783660888672
      vertex 46.0573844909668 -52.306854248046875 18.295639038085938
    endloop
  endfacet
  facet normal 0 -1 0
    outer loop
      vertex 63.84400939941406 -52.306854248046875 18.72783660888672
      vertex 68.84890747070312 -52.306854248046875 17.95203971862793
      vertex 68.84890747070312 -52.306854248046875 21.33455467224121
    endloop
  endfacet
  facet normal 0 -1 0
    outer loop
      vertex 64.36971282958984 -52.306854248046875 15.619125366210938
      vertex 68.84890747070312 -52.306854248046875 17.95203971862793
      vertex 63.84400939941406 -52.306854248046875 18.72783660888672
    endloop
  endfacet
  facet normal -0.14462253 0 -0.9894869
    outer loop
      vertex 64.36971282958984 -52.306854248046875 15.619125366210938
      vertex 46.0573844909668 -52.306854248046875 18.295639038085938
      vertex 46.0573844909668 52.29695129394531 18.295639038085938
    endloop
  endfacet
  facet normal 0.4619345 0 -0.8869141
    outer loop
      vertex 68.84890747070312 -52.306854248046875 17.95203971862793
      vertex 64.36971282958984 -52.306854248046875 15.619125366210938
      vertex 64.36971282958984 52.29695129394531 15.619125366210938
    endloop
  endfacet
  facet normal 1 0 0
    outer loop
      vertex 68.84890747070312 -52.306854248046875 21.33455467224121
      vertex 68.84890747070312 -52.306854248046875 17.95203971862793
      vertex 68.84890747070312 52.29695129394531 17.95203971862793
    endloop
  endfacet
  facet normal -0.46193448 0 0.8869141
    outer loop
      vertex 63.84400939941406 -52.306854248046875 18.72783660888672
      vertex 68.84890747070312 -52.306854248046875 21.33455467224121
      vertex 68.84890747070312 52.29695129394531 21.33455467224121
    endloop
  endfacet
  facet normal 0.14462256 0 0.9894869
    outer loop
      vertex 46.0573844909668 -52.306854248046875 21.3275146484375
      vertex 63.84400939941406 -52.306854248046875 18.72783660888672
      vertex 63.84400939941406 52.29695129394531 18.72783660888672
    endloop
  endfacet
  facet normal -1 0 0
    outer loop
      vertex 46.0573844909668 -52.306854248046875 18.295639038085938
      vertex 46.0573844909668 -52.306854248046875 21.3275146484375
      vertex 46.0573844909668 52.29695129394531 21.3275146484375
    endloop
  endfacet
  facet normal 0 -0 1
    outer loop
      vertex 62.90678787231445 -52.93360137939453 12.776200294494629
      vertex 62.90678787231445 52.93360137939453 12.776200294494629
      vertex 58.724544525146484 52.93360137939453 12.776200294494629
    endloop
  endfacet
  facet normal -0.538399 0 0.84269005
    outer loop
      vertex 58.724544525146484 -52.93360137939453 12.776200294494629
      vertex 58.724544525146484 52.93360137939453 12.776200294494629
      vertex 43.814998626708984 52.93360137939453 3.250415086746216
    endloop
  endfacet
  facet normal 0 0 -1
    outer loop
      vertex 43.814998626708984 -52.93360137939453 3.250415086746216
      vertex 43.814998626708984 52.93360137939453 3.250415086746216
      vertex 49.3870735168457 52.93360137939453 3.250415086746216
    endloop
  endfacet
  facet normal 0.53839904 0 -0.84269005
    outer loop
      vertex 49.3870735168457 -52.93360137939453 3.250415086746216
      vertex 49.3870735168457 52.93360137939453 3.250415086746216
      vertex 59.6010856628418 52.93360137939453 9.776200294494629
    endloop
  endfacet
  facet normal 0 0 -1
    outer loop
      vertex 59.6010856628418 -52.93360137939453 9.776200294494629
      vertex 59.6010856628418 52.93360137939453 9.776200294494629
      vertex 62.90678787231445 52.93360137939453 9.776200294494629
    endloop
  endfacet
  facet normal 1 0 0
    outer loop
      vertex 62.90678787231445 -52.93360137939453 9.776200294494629
      vertex 62.90678787231445 52.93360137939453 9.776200294494629
      vertex 62.90678787231445 52.93360137939453 12.776200294494629
    endloop
  endfacet
  facet normal 0 1 -0
    outer loop
      vertex 59.6010856628418 52.93360137939453 9.776200294494629
      vertex 58.724544525146484 52.93360137939453 12.776200294494629
      vertex 62.90678787231445 52.93360137939453 12.776200294494629
    endloop
  endfacet
  facet normal 0 1 0
    outer loop
      vertex 59.6010856628418 52.93360137939453 9.776200294494629
      vertex 49.3870735168457 52.93360137939453 3.250415086746216
      vertex 43.814998626708984 52.93360137939453 3.250415086746216
    endloop
  endfacet
  facet normal 0 1 0
    outer loop
      vertex 58.724544525146484 52.93360137939453 12.776200294494629
      vertex 59.6010856628418 52.93360137939453 9.776200294494629
      vertex 43.814998626708984 52.93360137939453 3.250415086746216
    endloop
  endfacet
  facet normal 0 -1 0
    outer loop
      vertex 59.6010856628418 -52.93360137939453 9.776200294494629
      vertex 62.90678787231445 -52.93360137939453 9.776200294494629
      vertex 62.90678787231445 -52.93360137939453 12.776200294494629
    endloop
  endfacet
  facet normal 0 -1 0
    outer loop
      vertex 59.6010856628418 -52.93360137939453 9.776200294494629
      vertex 43.814998626708984 -52.93360137939453 3.250415086746216
      vertex 49.3870735168457 -52.93360137939453 3.250415086746216
    endloop
  endfacet
  facet normal 0 -1 -0
    outer loop
      vertex 58.724544525146484 -52.93360137939453 12.776200294494629
      vertex 43.814998626708984 -52.93360137939453 3.250415086746216
      vertex 59.6010856628418 -52.93360137939453 9.776200294494629
    endloop
  endfacet
  facet normal 0 1 0
    outer loop
      vertex -63.66877365112305 52.29695129394531 19.76407241821289
      vertex -45.76813888549805 52.29695129394531 19.348541259765625
      vertex -64.1944808959961 52.29695129394531 16.65536117553711
    endloop
  endfacet
  facet normal -0 1 0
    outer loop
      vertex -68.38697052001953 52.29695129394531 18.838953018188477
      vertex -63.66877365112305 52.29695129394531 19.76407241821289
      vertex -64.1944808959961 52.29695129394531 16.65536117553711
    endloop
  endfacet
  facet normal 0 1 0
    outer loop
      vertex -68.38697052001953 52.29695129394531 18.838953018188477
      vertex -68.38697052001953 52.29695129394531 22.221467971801758
      vertex -63.66877365112305 52.29695129394531 19.76407241821289
    endloop
  endfacet
  facet normal 0 1 -0
    outer loop
      vertex -45.76813888549805 52.29695129394531 19.348541259765625
      vertex -63.66877365112305 52.29695129394531 19.76407241821289
      vertex -45.76813888549805 52.29695129394531 22.380414962768555
    endloop
  endfacet
  facet normal -0 -1 0
    outer loop
      vertex -63.66877365112305 -52.306854248046875 19.76407241821289
      vertex -68.38697052001953 -52.306854248046875 22.221467971801758
      vertex -68.38697052001953 -52.306854248046875 18.838953018188477
    endloop
  endfacet
  facet normal 0 -1 0
    outer loop
      vertex -64.1944808959961 -52.306854248046875 16.65536117553711
      vertex -63.66877365112305 -52.306854248046875 19.76407241821289
      vertex -68.38697052001953 -52.306854248046875 18.838953018188477
    endloop
  endfacet
  facet normal 0 -1 -0
    outer loop
      vertex -45.76813888549805 -52.306854248046875 22.380414962768555
      vertex -63.66877365112305 -52.306854248046875 19.76407241821289
      vertex -45.76813888549805 -52.306854248046875 19.348541259765625
    endloop
  endfacet
  facet normal 0 -1 0
    outer loop
      vertex -64.1944808959961 -52.306854248046875 16.65536117553711
      vertex -45.76813888549805 -52.306854248046875 19.348541259765625
      vertex -63.66877365112305 -52.306854248046875 19.76407241821289
    endloop
  endfacet
  facet normal 1 0 -0
    outer loop
      vertex -45.76813888549805 52.29695129394531 19.348541259765625
      vertex -45.76813888549805 52.29695129394531 22.380414962768555
      vertex -45.76813888549805 -52.306854248046875 22.380414962768555
    endloop
  endfacet
  facet normal 0.14462265 0 -0.9894869
    outer loop
      vertex -64.1944808959961 52.29695129394531 16.65536117553711
      vertex -45.76813888549805 52.29695129394531 19.348541259765625
      vertex -45.76813888549805 -52.306854248046875 19.348541259765625
    endloop
  endfacet
  facet normal -0.461935 0 -0.8869138
    outer loop
      vertex -68.38697052001953 52.29695129394531 18.838953018188477
      vertex -64.1944808959961 52.29695129394531 16.65536117553711
      vertex -64.1944808959961 -52.306854248046875 16.65536117553711
    endloop
  endfacet
  facet normal -1 0 -0
    outer loop
      vertex -68.38697052001953 52.29695129394531 22.221467971801758
      vertex -68.38697052001953 52.29695129394531 18.838953018188477
      vertex -68.38697052001953 -52.306854248046875 18.838953018188477
    endloop
  endfacet
  facet normal 0.46193463 0 0.88691396
    outer loop
      vertex -63.66877365112305 52.29695129394531 19.76407241821289
      vertex -68.38697052001953 52.29695129394531 22.221467971801758
      vertex -68.38697052001953 -52.306854248046875 22.221467971801758
    endloop
  endfacet
  facet normal -0.14462262 0 0.9894869
    outer loop
      vertex -45.76813888549805 52.29695129394531 22.380414962768555
      vertex -63.66877365112305 52.29695129394531 19.76407241821289
      vertex -63.66877365112305 -52.306854248046875 19.76407241821289
    endloop
  endfacet
  facet normal -1 0 0
    outer loop
      vertex -34.290000915527344 113.33480072021484 0
      vertex -34.290000915527344 71.98359680175781 0
      vertex -34.290000915527344 71.98359680175781 5.968999862670898
    endloop
  endfacet
  facet normal 0 1 0
    outer loop
      vertex 34.445308685302734 113.33480072021484 2.220446049250313E-16
      vertex -34.290000915527344 113.33480072021484 0
      vertex -34.290000915527344 113.33480072021484 5.968999862670898
    endloop
  endfacet
  facet normal 1 0 0
    outer loop
      vertex 34.445308685302734 71.98359680175781 2.220446049250313E-16
      vertex 34.445308685302734 113.33480072021484 2.220446049250313E-16
      vertex 34.445308685302734 113.33480072021484 5.968999862670898
    endloop
  endfacet
  facet normal 0 -1 0
    outer loop
      vertex -34.290000915527344 71.98359680175781 0
      vertex 34.445308685302734 71.98359680175781 2.220446049250313E-16
      vertex 34.445308685302734 71.98359680175781 5.968999862670898
    endloop
  endfacet
  facet normal 0 0 1
    outer loop
      vertex -34.290000915527344 71.98359680175781 5.968999862670898
      vertex 34.445308685302734 71.98359680175781 5.968999862670898
      vertex 34.445308685302734 113.33480072021484 5.968999862670898
    endloop
  endfacet
  facet normal -1 0 0
    outer loop
      vertex 63.80843734741211 17.983200073242188 5.054599761962891
      vertex 63.80843734741211 51.511199951171875 5.054599761962891
      vertex 63.80843734741211 51.511199951171875 0
    endloop
  endfacet
  facet normal -0 -1 0
    outer loop
      vertex 71.12364196777344 17.983200073242188 5.054599761962891
      vertex 63.80843734741211 17.983200073242188 5.054599761962891
      vertex 63.80843734741211 17.983200073242188 0
    endloop
  endfacet
  facet normal 1 0 0
    outer loop
      vertex 71.12364196777344 51.511199951171875 5.054599761962891
      vertex 71.12364196777344 17.983200073242188 5.054599761962891
      vertex 71.12364196777344 17.983200073242188 0
    endloop
  endfacet
  facet normal -0 1 0
    outer loop
      vertex 63.80843734741211 51.511199951171875 5.054599761962891
      vertex 71.12364196777344 51.511199951171875 5.054599761962891
      vertex 71.12364196777344 51.511199951171875 0
    endloop
  endfacet
  facet normal 0 -0 1
    outer loop
      vertex 71.12364196777344 17.983200073242188 5.054599761962891
      vertex 71.12364196777344 51.511199951171875 5.054599761962891
      vertex 63.80843734741211 51.511199951171875 5.054599761962891
    endloop
  endfacet
  facet normal -1 0 0
    outer loop
      vertex 63.80843734741211 -51.511199951171875 5.054599761962891
      vertex 63.80843734741211 -17.983200073242188 5.054599761962891
      vertex 63.80843734741211 -17.983200073242188 0
    endloop
  endfacet
  facet normal -0 -1 0
    outer loop
      vertex 71.12364196777344 -51.511199951171875 5.054599761962891
      vertex 63.80843734741211 -51.511199951171875 5.054599761962891
      vertex 63.80843734741211 -51.511199951171875 0
    endloop
  endfacet
  facet normal 1 0 0
    outer loop
      vertex 71.12364196777344 -17.983200073242188 5.054599761962891
      vertex 71.12364196777344 -51.511199951171875 5.054599761962891
      vertex 71.12364196777344 -51.511199951171875 0
    endloop
  endfacet
  facet normal -0 1 0
    outer loop
      vertex 63.80843734741211 -17.983200073242188 5.054599761962891
      vertex 71.12364196777344 -17.983200073242188 5.054599761962891
      vertex 71.12364196777344 -17.983200073242188 -1.1102230246251565E-16
    endloop
  endfacet
  facet normal 0 -0 1
    outer loop
      vertex 71.12364196777344 -51.511199951171875 5.054599761962891
      vertex 71.12364196777344 -17.983200073242188 5.054599761962891
      vertex 63.80843734741211 -17.983200073242188 5.054599761962891
    endloop
  endfacet
  facet normal -0 -1 0
    outer loop
      vertex -63.64876174926758 17.983200073242188 5.054599761962891
      vertex -70.96395874023438 17.983200073242188 5.054599761962891
      vertex -70.96395874023438 17.983200073242188 -1.1102230246251565E-16
    endloop
  endfacet
  facet normal 1 0 0
    outer loop
      vertex -63.64876174926758 51.511199951171875 5.054599761962891
      vertex -63.64876174926758 17.983200073242188 5.054599761962891
      vertex -63.64876174926758 17.983200073242188 -1.1102230246251565E-16
    endloop
  endfacet
  facet normal -0 1 0
    outer loop
      vertex -70.96395874023438 51.511199951171875 5.054599761962891
      vertex -63.64876174926758 51.511199951171875 5.054599761962891
      vertex -63.64876174926758 51.511199951171875 -1.1102230246251565E-16
    endloop
  endfacet
  facet normal -1 0 0
    outer loop
      vertex -70.96395874023438 17.983200073242188 5.054599761962891
      vertex -70.96395874023438 51.511199951171875 5.054599761962891
      vertex -70.96395874023438 51.511199951171875 -1.1102230246251565E-16
    endloop
  endfacet
  facet normal 0 0 1
    outer loop
      vertex -63.64876174926758 51.511199951171875 5.054599761962891
      vertex -70.96395874023438 51.511199951171875 5.054599761962891
      vertex -70.96395874023438 17.983200073242188 5.054599761962891
    endloop
  endfacet
  facet normal -0 -1 0
    outer loop
      vertex -50.875003814697266 85.97584533691406 5.054599761962891
      vertex -64.00436401367188 85.97584533691406 5.054599761962891
      vertex -64.00436401367188 85.97584533691406 -1.1102230246251565E-16
    endloop
  endfacet
  facet normal 1 0 0
    outer loop
      vertex -50.875003814697266 95.11984252929688 5.054599761962891
      vertex -50.875003814697266 85.97584533691406 5.054599761962891
      vertex -50.875003814697266 85.97584533691406 -1.1102230246251565E-16
    endloop
  endfacet
  facet normal -0 1 0
    outer loop
      vertex -64.00436401367188 95.11984252929688 5.054599761962891
      vertex -50.875003814697266 95.11984252929688 5.054599761962891
      vertex -50.875003814697266 95.11984252929688 -1.1102230246251565E-16
    endloop
  endfacet
  facet normal -1 0 0
    outer loop
      vertex -64.00436401367188 85.97584533691406 5.054599761962891
      vertex -64.00436401367188 95.11984252929688 5.054599761962891
      vertex -64.00436401367188 95.11984252929688 -1.1102230246251565E-16
    endloop
  endfacet
  facet normal 0 0 1
    outer loop
      vertex -50.875003814697266 95.11984252929688 5.054599761962891
      vertex -64.00436401367188 95.11984252929688 5.054599761962891
      vertex -64.00436401367188 85.97584533691406 5.054599761962891
    endloop
  endfacet
  facet normal -0 -1 0
    outer loop
      vertex -63.64876174926758 -51.511199951171875 5.054599761962891
      vertex -70.96395874023438 -51.511199951171875 5.054599761962891
      vertex -70.96395874023438 -51.511199951171875 2.220446049250313E-16
    endloop
  endfacet
  facet normal 1 0 0
    outer loop
      vertex -63.64876174926758 -17.983200073242188 5.054599761962891
      vertex -63.64876174926758 -51.511199951171875 5.054599761962891
      vertex -63.64876174926758 -51.511199951171875 2.220446049250313E-16
    endloop
  endfacet
  facet normal -0 1 0
    outer loop
      vertex -70.96395874023438 -17.983200073242188 5.054599761962891
      vertex -63.64876174926758 -17.983200073242188 5.054599761962891
      vertex -63.64876174926758 -17.983200073242188 2.220446049250313E-16
    endloop
  endfacet
  facet normal -1 0 0
    outer loop
      vertex -70.96395874023438 -51.511199951171875 5.054599761962891
      vertex -70.96395874023438 -17.983200073242188 5.054599761962891
      vertex -70.96395874023438 -17.983200073242188 2.220446049250313E-16
    endloop
  endfacet
  facet normal 0 0 1
    outer loop
      vertex -63.64876174926758 -17.983200073242188 5.054599761962891
      vertex -70.96395874023438 -17.983200073242188 5.054599761962891
      vertex -70.96395874023438 -51.511199951171875 5.054599761962891
    endloop
  endfacet
  facet normal -1 0 0
    outer loop
      vertex -70.35436248779297 1.930400013923645 16.2052001953125
      vertex -70.35436248779297 5.562600135803223 16.2052001953125
      vertex -70.35436248779297 5.562600135803223 2.220446049250313E-16
    endloop
  endfacet
  facet normal -0 -1 0
    outer loop
      vertex -63.64876174926758 1.930400013923645 16.2052001953125
      vertex -70.35436248779297 1.930400013923645 16.2052001953125
      vertex -70.35436248779297 1.930400013923645 2.220446049250313E-16
    endloop
  endfacet
  facet normal 1 0 0
    outer loop
      vertex -63.64876174926758 5.562600135803223 16.2052001953125
      vertex -63.64876174926758 1.930400013923645 16.2052001953125
      vertex -63.64876174926758 1.930400013923645 2.220446049250313E-16
    endloop
  endfacet
  facet normal -0 1 0
    outer loop
      vertex -70.35436248779297 5.562600135803223 16.2052001953125
      vertex -63.64876174926758 5.562600135803223 16.2052001953125
      vertex -63.64876174926758 5.562600135803223 2.220446049250313E-16
    endloop
  endfacet
  facet normal 0 -0 1
    outer loop
      vertex -63.64876174926758 1.930400013923645 16.2052001953125
      vertex -63.64876174926758 5.562600135803223 16.2052001953125
      vertex -70.35436248779297 5.562600135803223 16.2052001953125
    endloop
  endfacet
  facet normal 1 0 0
    outer loop
      vertex -63.039161682128906 -93.71331787109375 5.054599761962891
      vertex -63.039161682128906 -93.71331787109375 -1.1102230246251565E-16
      vertex -63.039161682128906 -84.6073989868164 3.835400104522705
    endloop
  endfacet
  facet normal 1 0 0
    outer loop
      vertex -63.039161682128906 -69.20231628417969 5.054599761962891
      vertex -63.039161682128906 -93.71331787109375 5.054599761962891
      vertex -63.039161682128906 -84.6073989868164 4.749800205230713
    endloop
  endfacet
  facet normal 1 0 -0
    outer loop
      vertex -63.039161682128906 -84.6073989868164 3.835400104522705
      vertex -63.039161682128906 -84.6073989868164 4.749800205230713
      vertex -63.039161682128906 -93.71331787109375 5.054599761962891
    endloop
  endfacet
  facet normal 1 0 0
    outer loop
      vertex -63.039161682128906 -69.20231628417969 5.054599761962891
      vertex -63.039161682128906 -75.28559875488281 3.835400104522705
      vertex -63.039161682128906 -69.20231628417969 -1.1102230246251565E-16
    endloop
  endfacet
  facet normal 1 0 0
    outer loop
      vertex -63.039161682128906 -75.28559875488281 3.835400104522705
      vertex -63.039161682128906 -69.20231628417969 5.054599761962891
      vertex -63.039161682128906 -75.28559875488281 4.749800205230713
    endloop
  endfacet
  facet normal 0 0 1
    outer loop
      vertex -10.272900581359863 -79.05584716796875 4.749800205230713
      vertex -63.039161682128906 -84.6073989868164 4.749800205230713
      vertex -10.272900581359863 -80.8479232788086 4.749800205230713
    endloop
  endfacet
  facet normal 0 0 1
    outer loop
      vertex 39.47159957885742 -84.6073989868164 4.749800205230713
      vertex -10.272900581359863 -80.8479232788086 4.749800205230713
      vertex -63.039161682128906 -84.6073989868164 4.749800205230713
    endloop
  endfacet
  facet normal 0 0 1
    outer loop
      vertex 39.47159957885742 -75.28559875488281 4.749800205230713
      vertex -63.039161682128906 -75.28559875488281 4.749800205230713
      vertex -10.272900581359863 -79.05584716796875 4.749800205230713
    endloop
  endfacet
  facet normal 0 0 1
    outer loop
      vertex -63.039161682128906 -84.6073989868164 4.749800205230713
      vertex -10.272900581359863 -79.05584716796875 4.749800205230713
      vertex -63.039161682128906 -75.28559875488281 4.749800205230713
    endloop
  endfacet
  facet normal -0 0 1
    outer loop
      vertex -10.272900581359863 -80.8479232788086 4.749800205230713
      vertex 39.47159957885742 -84.6073989868164 4.749800205230713
      vertex 10.272900581359863 -80.8479232788086 4.749800205230713
    endloop
  endfacet
  facet normal 0 0 1
    outer loop
      vertex -10.272900581359863 -79.05584716796875 4.749800205230713
      vertex 10.272900581359863 -79.05584716796875 4.749800205230713
      vertex 39.47159957885742 -75.28559875488281 4.749800205230713
    endloop
  endfacet
  facet normal 0 1 0
    outer loop
      vertex 10.924884796142578 -75.28559875488281 0
      vertex -39.04774856567383 -75.28559875488281 0
      vertex -39.04774856567383 -75.28559875488281 3.835400104522705
    endloop
  endfacet
  facet normal 0 1 0
    outer loop
      vertex 10.924884796142578 -75.28559875488281 3.835400104522705
      vertex -39.04774856567383 -75.28559875488281 3.835400104522705
      vertex -63.039161682128906 -75.28559875488281 4.749800205230713
    endloop
  endfacet
  facet normal 0 1 0
    outer loop
      vertex -63.039161682128906 -75.28559875488281 3.835400104522705
      vertex -63.039161682128906 -75.28559875488281 4.749800205230713
      vertex -39.04774856567383 -75.28559875488281 3.835400104522705
    endloop
  endfacet
  facet normal -0 1 0
    outer loop
      vertex -63.039161682128906 -75.28559875488281 4.749800205230713
      vertex 39.47159957885742 -75.28559875488281 4.749800205230713
      vertex 10.924884796142578 -75.28559875488281 3.835400104522705
    endloop
  endfacet
  facet normal 0 -1 0
    outer loop
      vertex -39.04774856567383 -84.6073989868164 3.835400104522705
      vertex -39.04774856567383 -84.6073989868164 0
      vertex 10.924884796142578 -84.6073989868164 0
    endloop
  endfacet
  facet normal 0 -1 0
    outer loop
      vertex 10.924884796142578 -84.6073989868164 3.835400104522705
      vertex -63.039161682128906 -84.6073989868164 4.749800205230713
      vertex -39.04774856567383 -84.6073989868164 3.835400104522705
    endloop
  endfacet
  facet normal 0 -1 0
    outer loop
      vertex -63.039161682128906 -84.6073989868164 4.749800205230713
      vertex 10.924884796142578 -84.6073989868164 3.835400104522705
      vertex 39.47159957885742 -84.6073989868164 4.749800205230713
    endloop
  endfacet
  facet normal -1 0 0
    outer loop
      vertex -70.35436248779297 -93.71331787109375 5.054599761962891
      vertex -70.35436248779297 -69.20231628417969 5.054599761962891
      vertex -70.35436248779297 -69.20231628417969 -1.1102230246251565E-16
    endloop
  endfacet
  facet normal -0 -1 0
    outer loop
      vertex -63.039161682128906 -93.71331787109375 5.054599761962891
      vertex -70.35436248779297 -93.71331787109375 5.054599761962891
      vertex -70.35436248779297 -93.71331787109375 -1.1102230246251565E-16
    endloop
  endfacet
  facet normal 1 0 0
    outer loop
      vertex -63.039161682128906 -84.6073989868164 3.835400104522705
      vertex -63.039161682128906 -93.71331787109375 -1.1102230246251565E-16
      vertex -63.039161682128906 -69.20231628417969 -1.1102230246251565E-16
    endloop
  endfacet
  facet normal -0 1 0
    outer loop
      vertex -70.35436248779297 -69.20231628417969 5.054599761962891
      vertex -63.039161682128906 -69.20231628417969 5.054599761962891
      vertex -63.039161682128906 -69.20231628417969 -1.1102230246251565E-16
    endloop
  endfacet
  facet normal 0 -0 1
    outer loop
      vertex -63.039161682128906 -93.71331787109375 5.054599761962891
      vertex -63.039161682128906 -69.20231628417969 5.054599761962891
      vertex -70.35436248779297 -69.20231628417969 5.054599761962891
    endloop
  endfacet
  facet normal -0 -1 0
    outer loop
      vertex 10.272900581359863 -80.8479232788086 15.314949035644531
      vertex -10.272900581359863 -80.8479232788086 15.314949035644531
      vertex -10.272900581359863 -80.8479232788086 4.749800205230713
    endloop
  endfacet
  facet normal 1 0 0
    outer loop
      vertex 10.272900581359863 -79.05584716796875 15.314949035644531
      vertex 10.272900581359863 -80.8479232788086 15.314949035644531
      vertex 10.272900581359863 -80.8479232788086 4.749800205230713
    endloop
  endfacet
  facet normal -0 1 0
    outer loop
      vertex -10.272900581359863 -79.05584716796875 15.314949035644531
      vertex 10.272900581359863 -79.05584716796875 15.314949035644531
      vertex 10.272900581359863 -79.05584716796875 4.749800205230713
    endloop
  endfacet
  facet normal -1 0 0
    outer loop
      vertex -10.272900581359863 -80.8479232788086 15.314949035644531
      vertex -10.272900581359863 -79.05584716796875 15.314949035644531
      vertex -10.272900581359863 -79.05584716796875 4.749800205230713
    endloop
  endfacet
  facet normal 0 0 1
    outer loop
      vertex 10.272900581359863 -79.05584716796875 15.314949035644531
      vertex -10.272900581359863 -79.05584716796875 15.314949035644531
      vertex -10.272900581359863 -80.8479232788086 15.314949035644531
    endloop
  endfacet
  facet normal -1 0 0
    outer loop
      vertex -39.04774856567383 -84.6073989868164 3.835400104522705
      vertex -39.04774856567383 -75.28559875488281 3.835400104522705
      vertex -39.04774856567383 -75.28559875488281 0
    endloop
  endfacet
  facet normal 1 0 0
    outer loop
      vertex 10.924884796142578 -75.28559875488281 3.835400104522705
      vertex 10.924884796142578 -84.6073989868164 3.835400104522705
      vertex 10.924884796142578 -84.6073989868164 0
    endloop
  endfacet
  facet normal 1 0 0
    outer loop
      vertex 39.47159957885742 -75.28559875488281 4.749800205230713
      vertex 39.47159957885742 -84.6073989868164 4.749800205230713
      vertex 39.47159957885742 -84.6073989868164 3.835400104522705
    endloop
  endfacet
  facet normal 0 0 -1
    outer loop
      vertex 10.924884796142578 -84.6073989868164 3.835400104522705
      vertex 10.924884796142578 -75.28559875488281 3.835400104522705
      vertex 39.47159957885742 -75.28559875488281 3.835400104522705
    endloop
  endfacet
  facet normal 0 0 -1
    outer loop
      vertex -63.039161682128906 -84.6073989868164 3.835400104522705
      vertex -63.039161682128906 -75.28559875488281 3.835400104522705
      vertex -39.04774856567383 -75.28559875488281 3.835400104522705
    endloop
  endfacet
  facet normal 0 0 1
    outer loop
      vertex 39.47159957885742 -75.28559875488281 4.749800205230713
      vertex 10.272900581359863 -79.05584716796875 4.749800205230713
      vertex 39.47159957885742 -84.6073989868164 4.749800205230713
    endloop
  endfacet
  facet normal 0 -1 0
    outer loop
      vertex -63.039161682128906 -84.6073989868164 3.835400104522705
      vertex -39.04774856567383 -84.6073989868164 3.835400104522705
      vertex -63.039161682128906 -84.6073989868164 4.749800205230713
    endloop
  endfacet
  facet normal 0 -1 -0
    outer loop
      vertex 39.47159957885742 -84.6073989868164 4.749800205230713
      vertex 10.924884796142578 -84.6073989868164 3.835400104522705
      vertex 39.47159957885742 -84.6073989868164 3.835400104522705
    endloop
  endfacet
  facet normal 0 1 -0
    outer loop
      vertex 39.47159957885742 -75.28559875488281 3.835400104522705
      vertex 10.924884796142578 -75.28559875488281 3.835400104522705
      vertex 39.47159957885742 -75.28559875488281 4.749800205230713
    endloop
  endfacet
  facet normal 0 0 1
    outer loop
      vertex -62.90678787231445 52.93360137939453 12.776200294494629
      vertex -62.90678787231445 -52.93360137939453 12.776200294494629
      vertex -58.724544525146484 -52.93360137939453 12.776200294494629
    endloop
  endfacet
  facet normal 0.538399 0 0.84269005
    outer loop
      vertex -58.724544525146484 52.93360137939453 12.776200294494629
      vertex -58.724544525146484 -52.93360137939453 12.776200294494629
      vertex -53.079261779785156 42.59579849243164 9.169400215148926
    endloop
  endfacet
  facet normal 0.538399 3.9378772E-10 0.84269005
    outer loop
      vertex -58.724544525146484 -52.93360137939453 12.776200294494629
      vertex -43.577693939208984 -52.93360137939453 3.09879994392395
      vertex -53.079261779785156 42.59579849243164 9.169400215148926
    endloop
  endfacet
  facet normal 0.538399 0 0.84269005
    outer loop
      vertex -53.079261779785156 52.93360137939453 9.169400215148926
      vertex -58.724544525146484 52.93360137939453 12.776200294494629
      vertex -53.079261779785156 42.59579849243164 9.169400215148926
    endloop
  endfacet
  facet normal 0 -0 -1
    outer loop
      vertex -43.577693939208984 42.59579849243164 3.09879994392395
      vertex -43.577693939208984 -52.93360137939453 3.09879994392395
      vertex -49.1497688293457 -52.93360137939453 3.09879994392395
    endloop
  endfacet
  facet normal -0.53839904 -0 -0.84269005
    outer loop
      vertex -49.1497688293457 42.59579849243164 3.09879994392395
      vertex -49.1497688293457 -52.93360137939453 3.09879994392395
      vertex -56.777889251708984 42.59579849243164 7.972445487976074
    endloop
  endfacet
  facet normal -0.53839904 -2.2572731E-10 -0.84269005
    outer loop
      vertex -59.6010856628418 -52.93360137939453 9.776200294494629
      vertex -56.777889251708984 42.59579849243164 7.972445487976074
      vertex -49.1497688293457 -52.93360137939453 3.09879994392395
    endloop
  endfacet
  facet normal -0.53839904 -0 -0.84269005
    outer loop
      vertex -56.777889251708984 52.93360137939453 7.972445487976074
      vertex -56.777889251708984 42.59579849243164 7.972445487976074
      vertex -59.6010856628418 52.93360137939453 9.776200294494629
    endloop
  endfacet
  facet normal -0.53839904 0 -0.84269005
    outer loop
      vertex -59.6010856628418 -52.93360137939453 9.776200294494629
      vertex -59.6010856628418 52.93360137939453 9.776200294494629
      vertex -56.777889251708984 42.59579849243164 7.972445487976074
    endloop
  endfacet
  facet normal 0 -0 -1
    outer loop
      vertex -59.6010856628418 52.93360137939453 9.776200294494629
      vertex -59.6010856628418 -52.93360137939453 9.776200294494629
      vertex -62.90678787231445 -52.93360137939453 9.776200294494629
    endloop
  endfacet
  facet normal -1 0 0
    outer loop
      vertex -62.90678787231445 52.93360137939453 9.776200294494629
      vertex -62.90678787231445 -52.93360137939453 9.776200294494629
      vertex -62.90678787231445 -52.93360137939453 12.776200294494629
    endloop
  endfacet
  facet normal 0 -1 0
    outer loop
      vertex -59.6010856628418 -52.93360137939453 9.776200294494629
      vertex -43.577693939208984 -52.93360137939453 3.09879994392395
      vertex -58.724544525146484 -52.93360137939453 12.776200294494629
    endloop
  endfacet
  facet normal 0 -1 0
    outer loop
      vertex -49.1497688293457 -52.93360137939453 3.09879994392395
      vertex -43.577693939208984 -52.93360137939453 3.09879994392395
      vertex -59.6010856628418 -52.93360137939453 9.776200294494629
    endloop
  endfacet
  facet normal 0 -1 0
    outer loop
      vertex -59.6010856628418 -52.93360137939453 9.776200294494629
      vertex -58.724544525146484 -52.93360137939453 12.776200294494629
      vertex -62.90678787231445 -52.93360137939453 12.776200294494629
    endloop
  endfacet
  facet normal 0 1 0
    outer loop
      vertex -59.6010856628418 52.93360137939453 9.776200294494629
      vertex -56.777889251708984 52.93360137939453 9.169400215148926
      vertex -56.777889251708984 52.93360137939453 7.972445487976074
    endloop
  endfacet
  facet normal 0 1 0
    outer loop
      vertex -58.724544525146484 52.93360137939453 12.776200294494629
      vertex -53.079261779785156 52.93360137939453 9.169400215148926
      vertex -56.777889251708984 52.93360137939453 9.169400215148926
    endloop
  endfacet
  facet normal 0 1 0
    outer loop
      vertex -59.6010856628418 52.93360137939453 9.776200294494629
      vertex -62.90678787231445 52.93360137939453 9.776200294494629
      vertex -62.90678787231445 52.93360137939453 12.776200294494629
    endloop
  endfacet
  facet normal 0 1 0
    outer loop
      vertex -56.777889251708984 52.93360137939453 9.169400215148926
      vertex -59.6010856628418 52.93360137939453 9.776200294494629
      vertex -58.724544525146484 52.93360137939453 12.776200294494629
    endloop
  endfacet
  facet normal 0 0 1
    outer loop
      vertex -43.61180114746094 72.26300048828125 5.8673996925354
      vertex -43.61180114746094 42.59579849243164 5.8673996925354
      vertex -40.690799713134766 61.07453155517578 5.8673996925354
    endloop
  endfacet
  facet normal 0 0 1
    outer loop
      vertex -56.777889251708984 72.26300048828125 5.8673996925354
      vertex -43.61180114746094 72.26300048828125 5.8673996925354
      vertex -56.777889251708984 75.3826675415039 5.8673996925354
    endloop
  endfacet
  facet normal 0 -0 1
    outer loop
      vertex -18.59280014038086 61.07453155517578 5.8673996925354
      vertex -18.59280014038086 65.90345001220703 5.8673996925354
      vertex -40.690799713134766 65.90345001220703 5.8673996925354
    endloop
  endfacet
  facet normal -0 0 1
    outer loop
      vertex -43.61180114746094 72.26300048828125 5.8673996925354
      vertex -40.690799713134766 65.90345001220703 5.8673996925354
      vertex -40.690799713134766 75.3826675415039 5.8673996925354
    endloop
  endfacet
  facet normal 0 -0 1
    outer loop
      vertex -40.690799713134766 61.07453155517578 5.8673996925354
      vertex -40.690799713134766 65.90345001220703 5.8673996925354
      vertex -43.61180114746094 72.26300048828125 5.8673996925354
    endloop
  endfacet
  facet normal -0 -1 0
    outer loop
      vertex -18.59280014038086 61.07453155517578 5.8673996925354
      vertex -40.690799713134766 61.07453155517578 5.8673996925354
      vertex -40.690799713134766 61.07453155517578 0
    endloop
  endfacet
  facet normal 1 0 0
    outer loop
      vertex -18.59280014038086 65.90345001220703 5.8673996925354
      vertex -18.59280014038086 61.07453155517578 5.8673996925354
      vertex -18.59280014038086 61.07453155517578 0
    endloop
  endfacet
  facet normal -0 1 0
    outer loop
      vertex -40.690799713134766 65.90345001220703 5.8673996925354
      vertex -18.59280014038086 65.90345001220703 5.8673996925354
      vertex -18.59280014038086 65.90345001220703 0
    endloop
  endfacet
  facet normal 1 0 0
    outer loop
      vertex -40.690799713134766 61.07453155517578 5.8673996925354
      vertex -40.690799713134766 42.59579849243164 5.8673996925354
      vertex -40.690799713134766 42.59579849243164 0
    endloop
  endfacet
  facet normal -0 1 0
    outer loop
      vertex -56.777889251708984 75.3826675415039 5.8673996925354
      vertex -40.690799713134766 75.3826675415039 5.8673996925354
      vertex -40.690799713134766 75.3826675415039 0
    endloop
  endfacet
  facet normal 1 0 0
    outer loop
      vertex -43.61180114746094 72.26300048828125 9.169400215148926
      vertex -43.61180114746094 42.59579849243164 9.169400215148926
      vertex -43.61180114746094 42.59579849243164 5.8673996925354
    endloop
  endfacet
  facet normal -0 1 0
    outer loop
      vertex -56.777889251708984 72.26300048828125 9.169400215148926
      vertex -43.61180114746094 72.26300048828125 9.169400215148926
      vertex -43.61180114746094 72.26300048828125 5.8673996925354
    endloop
  endfacet
  facet normal 1 0 0
    outer loop
      vertex -40.690799713134766 75.3826675415039 5.8673996925354
      vertex -40.690799713134766 65.90345001220703 5.8673996925354
      vertex -40.690799713134766 65.90345001220703 0
    endloop
  endfacet
  facet normal 0 -1 0
    outer loop
      vertex -56.777889251708984 42.59579849243164 7.972445487976074
      vertex -56.777889251708984 42.59579849243164 0
      vertex -49.1497688293457 42.59579849243164 3.09879994392395
    endloop
  endfacet
  facet normal 0 -1 0
    outer loop
      vertex -56.777889251708984 42.59579849243164 0
      vertex -40.690799713134766 42.59579849243164 0
      vertex -49.1497688293457 42.59579849243164 3.09879994392395
    endloop
  endfacet
  facet normal 0 -1 -0
    outer loop
      vertex -40.690799713134766 42.59579849243164 5.8673996925354
      vertex -43.577693939208984 42.59579849243164 3.09879994392395
      vertex -40.690799713134766 42.59579849243164 0
    endloop
  endfacet
  facet normal 0 -1 0
    outer loop
      vertex -43.577693939208984 42.59579849243164 3.09879994392395
      vertex -40.690799713134766 42.59579849243164 5.8673996925354
      vertex -43.61180114746094 42.59579849243164 5.8673996925354
    endloop
  endfacet
  facet normal 0 -1 0
    outer loop
      vertex -53.079261779785156 42.59579849243164 9.169400215148926
      vertex -43.61180114746094 42.59579849243164 5.8673996925354
      vertex -43.61180114746094 42.59579849243164 9.169400215148926
    endloop
  endfacet
  facet normal 0 -1 0
    outer loop
      vertex -43.577693939208984 42.59579849243164 3.09879994392395
      vertex -43.61180114746094 42.59579849243164 5.8673996925354
      vertex -53.079261779785156 42.59579849243164 9.169400215148926
    endloop
  endfacet
  facet normal -1 0 0
    outer loop
      vertex -56.777889251708984 75.3826675415039 0
      vertex -56.777889251708984 42.59579849243164 0
      vertex -56.777889251708984 72.26300048828125 5.8673996925354
    endloop
  endfacet
  facet normal -1 0 -0
    outer loop
      vertex -56.777889251708984 52.93360137939453 7.972445487976074
      vertex -56.777889251708984 72.26300048828125 5.8673996925354
      vertex -56.777889251708984 42.59579849243164 0
    endloop
  endfacet
  facet normal -1 0 0
    outer loop
      vertex -56.777889251708984 72.26300048828125 5.8673996925354
      vertex -56.777889251708984 75.3826675415039 5.8673996925354
      vertex -56.777889251708984 75.3826675415039 0
    endloop
  endfacet
  facet normal -1 0 0
    outer loop
      vertex -56.777889251708984 42.59579849243164 0
      vertex -56.777889251708984 42.59579849243164 7.972445487976074
      vertex -56.777889251708984 52.93360137939453 7.972445487976074
    endloop
  endfacet
  facet normal -1 0 0
    outer loop
      vertex -56.777889251708984 52.93360137939453 7.972445487976074
      vertex -56.777889251708984 52.93360137939453 9.169400215148926
      vertex -56.777889251708984 72.26300048828125 9.169400215148926
    endloop
  endfacet
  facet normal -1 0 0
    outer loop
      vertex -56.777889251708984 72.26300048828125 5.8673996925354
      vertex -56.777889251708984 52.93360137939453 7.972445487976074
      vertex -56.777889251708984 72.26300048828125 9.169400215148926
    endloop
  endfacet
  facet normal 0 0 1
    outer loop
      vertex -53.079261779785156 42.59579849243164 9.169400215148926
      vertex -43.61180114746094 42.59579849243164 9.169400215148926
      vertex -53.079261779785156 52.93360137939453 9.169400215148926
    endloop
  endfacet
  facet normal 0 0 1
    outer loop
      vertex -43.61180114746094 72.26300048828125 9.169400215148926
      vertex -53.079261779785156 52.93360137939453 9.169400215148926
      vertex -43.61180114746094 42.59579849243164 9.169400215148926
    endloop
  endfacet
  facet normal 0 0 1
    outer loop
      vertex -56.777889251708984 52.93360137939453 9.169400215148926
      vertex -53.079261779785156 52.93360137939453 9.169400215148926
      vertex -56.777889251708984 72.26300048828125 9.169400215148926
    endloop
  endfacet
  facet normal 0 0 1
    outer loop
      vertex -43.61180114746094 72.26300048828125 9.169400215148926
      vertex -56.777889251708984 72.26300048828125 9.169400215148926
      vertex -53.079261779785156 52.93360137939453 9.169400215148926
    endloop
  endfacet
  facet normal -0.500874 0.8655202 0
    outer loop
      vertex 216.60693359375 -8.35247802734375 1.0649537214536473E-13
      vertex 108.4446029663086 -70.9457015991211 21.945600509643555
      vertex 216.60693359375 -8.35247802734375 21.945600509643555
    endloop
  endfacet
  facet normal 0.8655202 0.5008741 -0
    outer loop
      vertex 279.0876159667969 -116.3203125 1.541791650946922E-12
      vertex 216.60693359375 -8.35247802734375 21.945600509643555
      vertex 279.0876159667969 -116.3203125 21.945600509643555
    endloop
  endfacet
  facet normal -0.8655202 -0.50087404 0
    outer loop
      vertex 170.92527770996094 -178.91354370117188 1.1581846592889633E-12
      vertex 170.92527770996094 -178.91354370117188 21.945600509643555
      vertex 108.4446029663086 -70.9457015991211 21.945600509643555
    endloop
  endfacet
  facet normal 0 0 1
    outer loop
      vertex 170.92527770996094 -178.91354370117188 21.945600509643555
      vertex 279.0876159667969 -116.3203125 21.945600509643555
      vertex 216.60693359375 -8.35247802734375 21.945600509643555
    endloop
  endfacet
  facet normal -0.50087404 0.8655202 0
    outer loop
      vertex -4.2890729904174805 -136.18435668945312 21.945600509643555
      vertex 87.33975982666016 -83.15901184082031 5.329070518200751E-15
      vertex -4.2890729904174805 -136.18435668945312 5.329070518200751E-15
    endloop
  endfacet
  facet normal -0.94829893 -0.3173785 -0
    outer loop
      vertex 36.12051773071289 -256.9246520996094 21.945600509643555
      vertex -4.2890729904174805 -136.18435668945312 5.329070518200751E-15
      vertex 36.12051773071289 -256.9246520996094 5.329070518200751E-15
    endloop
  endfacet
  facet normal 0.500874 -0.86552024 0
    outer loop
      vertex 149.8204345703125 -191.12684631347656 21.945600509643555
      vertex 36.12051773071289 -256.9246520996094 5.329070518200751E-15
      vertex 149.8204345703125 -191.12684631347656 5.329070518200751E-15
    endloop
  endfacet
  facet normal 0.8655202 0.50087404 0
    outer loop
      vertex 87.33975982666016 -83.15901184082031 21.945600509643555
      vertex 149.8204345703125 -191.12684631347656 5.329070518200751E-15
      vertex 87.33975982666016 -83.15901184082031 5.329070518200751E-15
    endloop
  endfacet
  facet normal -0 0 1
    outer loop
      vertex -4.2890729904174805 -136.18435668945312 21.945600509643555
      vertex 149.8204345703125 -191.12684631347656 21.945600509643555
      vertex 87.33975982666016 -83.15901184082031 21.945600509643555
    endloop
  endfacet
  facet normal -0.012736378 0.9999189 0
    outer loop
      vertex -106.65308380126953 -149.092041015625 10.972800254821777
      vertex -24.247262954711914 -148.0424041748047 1.7763568394002505E-15
      vertex -106.65308380126953 -149.092041015625 1.7763568394002505E-15
    endloop
  endfacet
  facet normal -0.31940058 0.9476198 0
    outer loop
      vertex -186.59463500976562 -176.0367889404297 10.972800254821777
      vertex -106.65308380126953 -149.092041015625 1.7763568394002505E-15
      vertex -186.59463500976562 -176.0367889404297 1.7763568394002505E-15
    endloop
  endfacet
  facet normal -0.94829893 -0.31737846 -0
    outer loop
      vertex -149.8345947265625 -285.87255859375 10.972800254821777
      vertex -186.59463500976562 -176.0367889404297 1.7763568394002505E-15
      vertex -149.8345947265625 -285.87255859375 1.7763568394002505E-15
    endloop
  endfacet
  facet normal 0.1371732 -0.99054706 0
    outer loop
      vertex 13.675065994262695 -263.2293701171875 10.972800254821777
      vertex -149.8345947265625 -285.87255859375 1.7763568394002505E-15
      vertex 13.675065994262695 -263.2293701171875 1.7763568394002505E-15
    endloop
  endfacet
  facet normal 0.94984776 0.3127128 0
    outer loop
      vertex -24.247262954711914 -148.0424041748047 10.972800254821777
      vertex 13.675065994262695 -263.2293701171875 1.7763568394002505E-15
      vertex -24.247262954711914 -148.0424041748047 1.7763568394002505E-15
    endloop
  endfacet
  facet normal -0.32063404 0.94720316 2.3243084E-07
    outer loop
      vertex -174.9556427001953 -125.31661987304688 27.464550018310547
      vertex -174.95565795898438 -125.3166275024414 37.506675720214844
      vertex -154.69760131835938 -118.45915222167969 37.506675720214844
    endloop
  endfacet
  facet normal -0.32063404 0.94720316 -4.8719636E-07
    outer loop
      vertex -174.95562744140625 -125.31661987304688 17.42242431640625
      vertex -174.9556427001953 -125.31661987304688 27.464550018310547
      vertex -154.6975860595703 -118.45914459228516 27.464550018310547
    endloop
  endfacet
  facet normal -0.32063413 0.9472031 2.3243065E-07
    outer loop
      vertex -154.6975860595703 -118.45914459228516 27.464550018310547
      vertex -154.69760131835938 -118.45915222167969 37.506675720214844
      vertex -134.4395294189453 -111.60166931152344 37.506675720214844
    endloop
  endfacet
  facet normal -0.32063404 0.94720316 7.1962717E-07
    outer loop
      vertex -154.6975860595703 -118.45913696289062 17.42242431640625
      vertex -154.6975860595703 -118.45914459228516 27.464550018310547
      vertex -134.4395294189453 -111.60166931152344 27.464550018310547
    endloop
  endfacet
  facet normal -1 2.1200819E-07 0
    outer loop
      vertex -114.18145751953125 -32.77154541015625 7.380297660827637
      vertex -114.18147277832031 -104.74418640136719 47.54880142211914
      vertex -114.18145751953125 -32.77154541015625 47.54880142211914
    endloop
  endfacet
  facet normal 0 1 -0
    outer loop
      vertex -92.845458984375 -32.77154541015625 7.380297660827637
      vertex -114.18145751953125 -32.77154541015625 47.54880142211914
      vertex -92.845458984375 -32.77154541015625 47.54880142211914
    endloop
  endfacet
  facet normal -0.41686174 0.90896994 0
    outer loop
      vertex -245.6200408935547 16.733253479003906 7.380297660827637
      vertex -92.845458984375 86.79704284667969 0
      vertex -245.6200408935547 16.733253479003906 0
    endloop
  endfacet
  facet normal 1 -0 0
    outer loop
      vertex -92.845458984375 -120.04703521728516 47.54880142211914
      vertex -92.845458984375 -32.77154541015625 7.380297660827637
      vertex -92.845458984375 -32.77154541015625 47.54880142211914
    endloop
  endfacet
  facet normal 1 0 -0
    outer loop
      vertex -92.845458984375 86.79704284667969 0
      vertex -92.845458984375 86.79704284667969 7.380297660827637
      vertex -92.845458984375 -32.77154541015625 7.380297660827637
    endloop
  endfacet
  facet normal -0.9472025 -0.32063594 -5.7384875E-07
    outer loop
      vertex -195.2136688232422 -132.17408752441406 7.380297660827637
      vertex -245.6200408935547 16.733253479003906 0
      vertex -188.37257385253906 -152.38360595703125 0
    endloop
  endfacet
  facet normal 0.8639121 0.50364256 0
    outer loop
      vertex -190.63540649414062 101.75467681884766 10.972800254821777
      vertex -174.0176239013672 73.2497329711914 -8.881784197001252E-16
      vertex -190.63540649414062 101.75467681884766 -8.881784197001252E-16
    endloop
  endfacet
  facet normal -0.31885046 0.94780505 0
    outer loop
      vertex -234.02236938476562 87.15889739990234 10.972800254821777
      vertex -190.63540649414062 101.75467681884766 -8.881784197001252E-16
      vertex -234.02236938476562 87.15889739990234 -8.881784197001252E-16
    endloop
  endfacet
  facet normal -0.86871624 0.49531016 0
    outer loop
      vertex -257.94293212890625 45.205020904541016 10.972800254821777
      vertex -234.02236938476562 87.15889739990234 -8.881784197001252E-16
      vertex -257.94293212890625 45.205020904541016 -8.881784197001252E-16
    endloop
  endfacet
  facet normal 0.31693566 -0.94844705 0
    outer loop
      vertex -174.0176239013672 73.2497329711914 10.972800254821777
      vertex -257.94293212890625 45.205020904541016 -8.881784197001252E-16
      vertex -174.0176239013672 73.2497329711914 -8.881784197001252E-16
    endloop
  endfacet
  facet normal 0 0 1
    outer loop
      vertex -174.0176239013672 73.2497329711914 10.972800254821777
      vertex -190.63540649414062 101.75467681884766 10.972800254821777
      vertex -234.02236938476562 87.15889739990234 10.972800254821777
    endloop
  endfacet
  facet normal 0.87555194 0.48312405 0
    outer loop
      vertex -39.4057502746582 183.01316833496094 9.448800086975098
      vertex -28.643129348754883 163.5083770751953 0
      vertex -39.4057502746582 183.01316833496094 0
    endloop
  endfacet
  facet normal 0.26289394 0.96482474 0
    outer loop
      vertex -131.98851013183594 208.23997497558594 9.448800086975098
      vertex -39.4057502746582 183.01316833496094 0
      vertex -131.98851013183594 208.23997497558594 0
    endloop
  endfacet
  facet normal -0.4975387 0.8674418 0
    outer loop
      vertex -215.66107177734375 160.24789428710938 9.448800086975098
      vertex -131.98851013183594 208.23997497558594 0
      vertex -215.66107177734375 160.24789428710938 0
    endloop
  endfacet
  facet normal -0.8674417 -0.49753878 -0
    outer loop
      vertex -170.3004913330078 81.16328430175781 9.448800086975098
      vertex -215.66107177734375 160.24789428710938 0
      vertex -170.3004913330078 81.16328430175781 0
    endloop
  endfacet
  facet normal 0.50255734 -0.86454386 0
    outer loop
      vertex -28.643129348754883 163.5083770751953 9.448800086975098
      vertex -170.3004913330078 81.16328430175781 0
      vertex -28.643129348754883 163.5083770751953 0
    endloop
  endfacet
  facet normal 0.27009153 0.96283466 0
    outer loop
      vertex 92.77774047851562 133.18112182617188 18.288000106811523
      vertex 166.29901123046875 112.5571517944336 -1.7763568394002505E-15
      vertex 92.77774047851562 133.18112182617188 -1.7763568394002505E-15
    endloop
  endfacet
  facet normal 0.5488496 -0.83592117 0
    outer loop
      vertex 217.09483337402344 35.192935943603516 18.288000106811523
      vertex 92.77774047851562 -46.43124771118164 -1.7763568394002505E-15
      vertex 217.09483337402344 35.192935943603516 -1.7763568394002505E-15
    endloop
  endfacet
  facet normal 0.8359212 0.5488494 0
    outer loop
      vertex 166.29901123046875 112.5571517944336 18.288000106811523
      vertex 217.09483337402344 35.192935943603516 -1.7763568394002505E-15
      vertex 166.29901123046875 112.5571517944336 -1.7763568394002505E-15
    endloop
  endfacet
  facet normal 0 0 1
    outer loop
      vertex 217.09483337402344 35.192935943603516 18.288000106811523
      vertex 92.77774047851562 133.18112182617188 18.288000106811523
      vertex 92.77774047851562 -46.43124771118164 18.288000106811523
    endloop
  endfacet
  facet normal -1 0 0
    outer loop
      vertex 92.77774047851562 -46.43124771118164 -1.7763568394002505E-15
      vertex 92.77774047851562 133.18112182617188 18.288000106811523
      vertex 92.77774047851562 133.18112182617188 -1.7763568394002505E-15
    endloop
  endfacet
  facet normal -0.14462253 0 -0.9894869
    outer loop
      vertex 64.36971282958984 -52.306854248046875 15.619125366210938
      vertex 46.0573844909668 52.29695129394531 18.295639038085938
      vertex 64.36971282958984 52.29695129394531 15.619125366210938
    endloop
  endfacet
  facet normal 0.4619345 0 -0.8869141
    outer loop
      vertex 68.84890747070312 -52.306854248046875 17.95203971862793
      vertex 64.36971282958984 52.29695129394531 15.619125366210938
      vertex 68.84890747070312 52.29695129394531 17.95203971862793
    endloop
  endfacet
  facet normal 1 -0 0
    outer loop
      vertex 68.84890747070312 -52.306854248046875 21.33455467224121
      vertex 68.84890747070312 52.29695129394531 17.95203971862793
      vertex 68.84890747070312 52.29695129394531 21.33455467224121
    endloop
  endfacet
  facet normal -0.46193448 0 0.8869141
    outer loop
      vertex 63.84400939941406 -52.306854248046875 18.72783660888672
      vertex 68.84890747070312 52.29695129394531 21.33455467224121
      vertex 63.84400939941406 52.29695129394531 18.72783660888672
    endloop
  endfacet
  facet normal 0.14462256 -0 0.9894869
    outer loop
      vertex 46.0573844909668 -52.306854248046875 21.3275146484375
      vertex 63.84400939941406 52.29695129394531 18.72783660888672
      vertex 46.0573844909668 52.29695129394531 21.3275146484375
    endloop
  endfacet
  facet normal -1 0 0
    outer loop
      vertex 46.0573844909668 -52.306854248046875 18.295639038085938
      vertex 46.0573844909668 52.29695129394531 21.3275146484375
      vertex 46.0573844909668 52.29695129394531 18.295639038085938
    endloop
  endfacet
  facet normal 0 0 1
    outer loop
      vertex 62.90678787231445 -52.93360137939453 12.776200294494629
      vertex 58.724544525146484 52.93360137939453 12.776200294494629
      vertex 58.724544525146484 -52.93360137939453 12.776200294494629
    endloop
  endfacet
  facet normal -0.538399 0 0.84269005
    outer loop
      vertex 58.724544525146484 -52.93360137939453 12.776200294494629
      vertex 43.814998626708984 52.93360137939453 3.250415086746216
      vertex 43.814998626708984 -52.93360137939453 3.250415086746216
    endloop
  endfacet
  facet normal 0 0 -1
    outer loop
      vertex 43.814998626708984 -52.93360137939453 3.250415086746216
      vertex 49.3870735168457 52.93360137939453 3.250415086746216
      vertex 49.3870735168457 -52.93360137939453 3.250415086746216
    endloop
  endfacet
  facet normal 0.53839904 0 -0.84269005
    outer loop
      vertex 49.3870735168457 -52.93360137939453 3.250415086746216
      vertex 59.6010856628418 52.93360137939453 9.776200294494629
      vertex 59.6010856628418 -52.93360137939453 9.776200294494629
    endloop
  endfacet
  facet normal 0 0 -1
    outer loop
      vertex 59.6010856628418 -52.93360137939453 9.776200294494629
      vertex 62.90678787231445 52.93360137939453 9.776200294494629
      vertex 62.90678787231445 -52.93360137939453 9.776200294494629
    endloop
  endfacet
  facet normal 1 0 0
    outer loop
      vertex 62.90678787231445 -52.93360137939453 9.776200294494629
      vertex 62.90678787231445 52.93360137939453 12.776200294494629
      vertex 62.90678787231445 -52.93360137939453 12.776200294494629
    endloop
  endfacet
  facet normal 0 1 0
    outer loop
      vertex 59.6010856628418 52.93360137939453 9.776200294494629
      vertex 62.90678787231445 52.93360137939453 12.776200294494629
      vertex 62.90678787231445 52.93360137939453 9.776200294494629
    endloop
  endfacet
  facet normal 0 -1 0
    outer loop
      vertex 59.6010856628418 -52.93360137939453 9.776200294494629
      vertex 62.90678787231445 -52.93360137939453 12.776200294494629
      vertex 58.724544525146484 -52.93360137939453 12.776200294494629
    endloop
  endfacet
  facet normal 1 0 0
    outer loop
      vertex -45.76813888549805 52.29695129394531 19.348541259765625
      vertex -45.76813888549805 -52.306854248046875 22.380414962768555
      vertex -45.76813888549805 -52.306854248046875 19.348541259765625
    endloop
  endfacet
  facet normal 0.14462265 0 -0.9894869
    outer loop
      vertex -64.1944808959961 52.29695129394531 16.65536117553711
      vertex -45.76813888549805 -52.306854248046875 19.348541259765625
      vertex -64.1944808959961 -52.306854248046875 16.65536117553711
    endloop
  endfacet
  facet normal -0.461935 -0 -0.8869138
    outer loop
      vertex -68.38697052001953 52.29695129394531 18.838953018188477
      vertex -64.1944808959961 -52.306854248046875 16.65536117553711
      vertex -68.38697052001953 -52.306854248046875 18.838953018188477
    endloop
  endfacet
  facet normal -1 -0 0
    outer loop
      vertex -68.38697052001953 52.29695129394531 22.221467971801758
      vertex -68.38697052001953 -52.306854248046875 18.838953018188477
      vertex -68.38697052001953 -52.306854248046875 22.221467971801758
    endloop
  endfacet
  facet normal 0.46193463 0 0.88691396
    outer loop
      vertex -63.66877365112305 52.29695129394531 19.76407241821289
      vertex -68.38697052001953 -52.306854248046875 22.221467971801758
      vertex -63.66877365112305 -52.306854248046875 19.76407241821289
    endloop
  endfacet
  facet normal -0.14462262 0 0.9894869
    outer loop
      vertex -45.76813888549805 52.29695129394531 22.380414962768555
      vertex -63.66877365112305 -52.306854248046875 19.76407241821289
      vertex -45.76813888549805 -52.306854248046875 22.380414962768555
    endloop
  endfacet
  facet normal -1 0 0
    outer loop
      vertex -34.290000915527344 113.33480072021484 0
      vertex -34.290000915527344 71.98359680175781 5.968999862670898
      vertex -34.290000915527344 113.33480072021484 5.968999862670898
    endloop
  endfacet
  facet normal 0 1 -0
    outer loop
      vertex 34.445308685302734 113.33480072021484 2.220446049250313E-16
      vertex -34.290000915527344 113.33480072021484 5.968999862670898
      vertex 34.445308685302734 113.33480072021484 5.968999862670898
    endloop
  endfacet
  facet normal 1 0 0
    outer loop
      vertex 34.445308685302734 71.98359680175781 2.220446049250313E-16
      vertex 34.445308685302734 113.33480072021484 5.968999862670898
      vertex 34.445308685302734 71.98359680175781 5.968999862670898
    endloop
  endfacet
  facet normal 0 -1 0
    outer loop
      vertex -34.290000915527344 71.98359680175781 0
      vertex 34.445308685302734 71.98359680175781 5.968999862670898
      vertex -34.290000915527344 71.98359680175781 5.968999862670898
    endloop
  endfacet
  facet normal 0 0 1
    outer loop
      vertex -34.290000915527344 71.98359680175781 5.968999862670898
      vertex 34.445308685302734 113.33480072021484 5.968999862670898
      vertex -34.290000915527344 113.33480072021484 5.968999862670898
    endloop
  endfacet
  facet normal -1 0 0
    outer loop
      vertex 63.80843734741211 17.983200073242188 5.054599761962891
      vertex 63.80843734741211 51.511199951171875 0
      vertex 63.80843734741211 17.983200073242188 0
    endloop
  endfacet
  facet normal 0 -1 -0
    outer loop
      vertex 71.12364196777344 17.983200073242188 5.054599761962891
      vertex 63.80843734741211 17.983200073242188 0
      vertex 71.12364196777344 17.983200073242188 0
    endloop
  endfacet
  facet normal 1 0 0
    outer loop
      vertex 71.12364196777344 51.511199951171875 5.054599761962891
      vertex 71.12364196777344 17.983200073242188 0
      vertex 71.12364196777344 51.511199951171875 0
    endloop
  endfacet
  facet normal 0 1 0
    outer loop
      vertex 63.80843734741211 51.511199951171875 5.054599761962891
      vertex 71.12364196777344 51.511199951171875 0
      vertex 63.80843734741211 51.511199951171875 0
    endloop
  endfacet
  facet normal 0 0 1
    outer loop
      vertex 71.12364196777344 17.983200073242188 5.054599761962891
      vertex 63.80843734741211 51.511199951171875 5.054599761962891
      vertex 63.80843734741211 17.983200073242188 5.054599761962891
    endloop
  endfacet
  facet normal -1 0 0
    outer loop
      vertex 63.80843734741211 -51.511199951171875 5.054599761962891
      vertex 63.80843734741211 -17.983200073242188 0
      vertex 63.80843734741211 -51.511199951171875 0
    endloop
  endfacet
  facet normal 0 -1 -0
    outer loop
      vertex 71.12364196777344 -51.511199951171875 5.054599761962891
      vertex 63.80843734741211 -51.511199951171875 0
      vertex 71.12364196777344 -51.511199951171875 0
    endloop
  endfacet
  facet normal 1 0 0
    outer loop
      vertex 71.12364196777344 -17.983200073242188 5.054599761962891
      vertex 71.12364196777344 -51.511199951171875 0
      vertex 71.12364196777344 -17.983200073242188 -1.1102230246251565E-16
    endloop
  endfacet
  facet normal 0 1 0
    outer loop
      vertex 63.80843734741211 -17.983200073242188 5.054599761962891
      vertex 71.12364196777344 -17.983200073242188 -1.1102230246251565E-16
      vertex 63.80843734741211 -17.983200073242188 0
    endloop
  endfacet
  facet normal 0 0 1
    outer loop
      vertex 71.12364196777344 -51.511199951171875 5.054599761962891
      vertex 63.80843734741211 -17.983200073242188 5.054599761962891
      vertex 63.80843734741211 -51.511199951171875 5.054599761962891
    endloop
  endfacet
  facet normal 0 -1 -0
    outer loop
      vertex -63.64876174926758 17.983200073242188 5.054599761962891
      vertex -70.96395874023438 17.983200073242188 -1.1102230246251565E-16
      vertex -63.64876174926758 17.983200073242188 -1.1102230246251565E-16
    endloop
  endfacet
  facet normal 1 0 0
    outer loop
      vertex -63.64876174926758 51.511199951171875 5.054599761962891
      vertex -63.64876174926758 17.983200073242188 -1.1102230246251565E-16
      vertex -63.64876174926758 51.511199951171875 -1.1102230246251565E-16
    endloop
  endfacet
  facet normal 0 1 0
    outer loop
      vertex -70.96395874023438 51.511199951171875 5.054599761962891
      vertex -63.64876174926758 51.511199951171875 -1.1102230246251565E-16
      vertex -70.96395874023438 51.511199951171875 -1.1102230246251565E-16
    endloop
  endfacet
  facet normal -1 0 0
    outer loop
      vertex -70.96395874023438 17.983200073242188 5.054599761962891
      vertex -70.96395874023438 51.511199951171875 -1.1102230246251565E-16
      vertex -70.96395874023438 17.983200073242188 -1.1102230246251565E-16
    endloop
  endfacet
  facet normal 0 0 1
    outer loop
      vertex -63.64876174926758 51.511199951171875 5.054599761962891
      vertex -70.96395874023438 17.983200073242188 5.054599761962891
      vertex -63.64876174926758 17.983200073242188 5.054599761962891
    endloop
  endfacet
  facet normal 0 -1 -0
    outer loop
      vertex -50.875003814697266 85.97584533691406 5.054599761962891
      vertex -64.00436401367188 85.97584533691406 -1.1102230246251565E-16
      vertex -50.875003814697266 85.97584533691406 -1.1102230246251565E-16
    endloop
  endfacet
  facet normal 1 0 0
    outer loop
      vertex -50.875003814697266 95.11984252929688 5.054599761962891
      vertex -50.875003814697266 85.97584533691406 -1.1102230246251565E-16
      vertex -50.875003814697266 95.11984252929688 -1.1102230246251565E-16
    endloop
  endfacet
  facet normal 0 1 0
    outer loop
      vertex -64.00436401367188 95.11984252929688 5.054599761962891
      vertex -50.875003814697266 95.11984252929688 -1.1102230246251565E-16
      vertex -64.00436401367188 95.11984252929688 -1.1102230246251565E-16
    endloop
  endfacet
  facet normal -1 0 0
    outer loop
      vertex -64.00436401367188 85.97584533691406 5.054599761962891
      vertex -64.00436401367188 95.11984252929688 -1.1102230246251565E-16
      vertex -64.00436401367188 85.97584533691406 -1.1102230246251565E-16
    endloop
  endfacet
  facet normal 0 0 1
    outer loop
      vertex -50.875003814697266 95.11984252929688 5.054599761962891
      vertex -64.00436401367188 85.97584533691406 5.054599761962891
      vertex -50.875003814697266 85.97584533691406 5.054599761962891
    endloop
  endfacet
  facet normal 0 -1 -0
    outer loop
      vertex -63.64876174926758 -51.511199951171875 5.054599761962891
      vertex -70.96395874023438 -51.511199951171875 2.220446049250313E-16
      vertex -63.64876174926758 -51.511199951171875 2.220446049250313E-16
    endloop
  endfacet
  facet normal 1 0 0
    outer loop
      vertex -63.64876174926758 -17.983200073242188 5.054599761962891
      vertex -63.64876174926758 -51.511199951171875 2.220446049250313E-16
      vertex -63.64876174926758 -17.983200073242188 2.220446049250313E-16
    endloop
  endfacet
  facet normal 0 1 0
    outer loop
      vertex -70.96395874023438 -17.983200073242188 5.054599761962891
      vertex -63.64876174926758 -17.983200073242188 2.220446049250313E-16
      vertex -70.96395874023438 -17.983200073242188 2.220446049250313E-16
    endloop
  endfacet
  facet normal -1 0 0
    outer loop
      vertex -70.96395874023438 -51.511199951171875 5.054599761962891
      vertex -70.96395874023438 -17.983200073242188 2.220446049250313E-16
      vertex -70.96395874023438 -51.511199951171875 2.220446049250313E-16
    endloop
  endfacet
  facet normal 0 0 1
    outer loop
      vertex -63.64876174926758 -17.983200073242188 5.054599761962891
      vertex -70.96395874023438 -51.511199951171875 5.054599761962891
      vertex -63.64876174926758 -51.511199951171875 5.054599761962891
    endloop
  endfacet
  facet normal -1 0 0
    outer loop
      vertex -70.35436248779297 1.930400013923645 16.2052001953125
      vertex -70.35436248779297 5.562600135803223 2.220446049250313E-16
      vertex -70.35436248779297 1.930400013923645 2.220446049250313E-16
    endloop
  endfacet
  facet normal 0 -1 -0
    outer loop
      vertex -63.64876174926758 1.930400013923645 16.2052001953125
      vertex -70.35436248779297 1.930400013923645 2.220446049250313E-16
      vertex -63.64876174926758 1.930400013923645 2.220446049250313E-16
    endloop
  endfacet
  facet normal 1 0 0
    outer loop
      vertex -63.64876174926758 5.562600135803223 16.2052001953125
      vertex -63.64876174926758 1.930400013923645 2.220446049250313E-16
      vertex -63.64876174926758 5.562600135803223 2.220446049250313E-16
    endloop
  endfacet
  facet normal 0 1 0
    outer loop
      vertex -70.35436248779297 5.562600135803223 16.2052001953125
      vertex -63.64876174926758 5.562600135803223 2.220446049250313E-16
      vertex -70.35436248779297 5.562600135803223 2.220446049250313E-16
    endloop
  endfacet
  facet normal 0 0 1
    outer loop
      vertex -63.64876174926758 1.930400013923645 16.2052001953125
      vertex -70.35436248779297 5.562600135803223 16.2052001953125
      vertex -70.35436248779297 1.930400013923645 16.2052001953125
    endloop
  endfacet
  facet normal 1 0 0
    outer loop
      vertex -63.039161682128906 -69.20231628417969 5.054599761962891
      vertex -63.039161682128906 -84.6073989868164 4.749800205230713
      vertex -63.039161682128906 -75.28559875488281 4.749800205230713
    endloop
  endfacet
  facet normal 0 1 -0
    outer loop
      vertex 10.924884796142578 -75.28559875488281 0
      vertex -39.04774856567383 -75.28559875488281 3.835400104522705
      vertex 10.924884796142578 -75.28559875488281 3.835400104522705
    endloop
  endfacet
  facet normal 0 -1 0
    outer loop
      vertex -39.04774856567383 -84.6073989868164 3.835400104522705
      vertex 10.924884796142578 -84.6073989868164 0
      vertex 10.924884796142578 -84.6073989868164 3.835400104522705
    endloop
  endfacet
  facet normal -1 0 0
    outer loop
      vertex -70.35436248779297 -93.71331787109375 5.054599761962891
      vertex -70.35436248779297 -69.20231628417969 -1.1102230246251565E-16
      vertex -70.35436248779297 -93.71331787109375 -1.1102230246251565E-16
    endloop
  endfacet
  facet normal 0 -1 -0
    outer loop
      vertex -63.039161682128906 -93.71331787109375 5.054599761962891
      vertex -70.35436248779297 -93.71331787109375 -1.1102230246251565E-16
      vertex -63.039161682128906 -93.71331787109375 -1.1102230246251565E-16
    endloop
  endfacet
  facet normal 1 -0 0
    outer loop
      vertex -63.039161682128906 -84.6073989868164 3.835400104522705
      vertex -63.039161682128906 -69.20231628417969 -1.1102230246251565E-16
      vertex -63.039161682128906 -75.28559875488281 3.835400104522705
    endloop
  endfacet
  facet normal 0 1 0
    outer loop
      vertex -70.35436248779297 -69.20231628417969 5.054599761962891
      vertex -63.039161682128906 -69.20231628417969 -1.1102230246251565E-16
      vertex -70.35436248779297 -69.20231628417969 -1.1102230246251565E-16
    endloop
  endfacet
  facet normal 0 0 1
    outer loop
      vertex -63.039161682128906 -93.71331787109375 5.054599761962891
      vertex -70.35436248779297 -69.20231628417969 5.054599761962891
      vertex -70.35436248779297 -93.71331787109375 5.054599761962891
    endloop
  endfacet
  facet normal 0 -1 -0
    outer loop
      vertex 10.272900581359863 -80.8479232788086 15.314949035644531
      vertex -10.272900581359863 -80.8479232788086 4.749800205230713
      vertex 10.272900581359863 -80.8479232788086 4.749800205230713
    endloop
  endfacet
  facet normal 1 0 0
    outer loop
      vertex 10.272900581359863 -79.05584716796875 15.314949035644531
      vertex 10.272900581359863 -80.8479232788086 4.749800205230713
      vertex 10.272900581359863 -79.05584716796875 4.749800205230713
    endloop
  endfacet
  facet normal 0 1 0
    outer loop
      vertex -10.272900581359863 -79.05584716796875 15.314949035644531
      vertex 10.272900581359863 -79.05584716796875 4.749800205230713
      vertex -10.272900581359863 -79.05584716796875 4.749800205230713
    endloop
  endfacet
  facet normal -1 0 0
    outer loop
      vertex -10.272900581359863 -80.8479232788086 15.314949035644531
      vertex -10.272900581359863 -79.05584716796875 4.749800205230713
      vertex -10.272900581359863 -80.8479232788086 4.749800205230713
    endloop
  endfacet
  facet normal 0 0 1
    outer loop
      vertex 10.272900581359863 -79.05584716796875 15.314949035644531
      vertex -10.272900581359863 -80.8479232788086 15.314949035644531
      vertex 10.272900581359863 -80.8479232788086 15.314949035644531
    endloop
  endfacet
  facet normal -1 0 0
    outer loop
      vertex -39.04774856567383 -84.6073989868164 3.835400104522705
      vertex -39.04774856567383 -75.28559875488281 0
      vertex -39.04774856567383 -84.6073989868164 0
    endloop
  endfacet
  facet normal 1 0 0
    outer loop
      vertex 10.924884796142578 -75.28559875488281 3.835400104522705
      vertex 10.924884796142578 -84.6073989868164 0
      vertex 10.924884796142578 -75.28559875488281 0
    endloop
  endfacet
  facet normal 1 0 0
    outer loop
      vertex 39.47159957885742 -75.28559875488281 4.749800205230713
      vertex 39.47159957885742 -84.6073989868164 3.835400104522705
      vertex 39.47159957885742 -75.28559875488281 3.835400104522705
    endloop
  endfacet
  facet normal 0 0 -1
    outer loop
      vertex 10.924884796142578 -84.6073989868164 3.835400104522705
      vertex 39.47159957885742 -75.28559875488281 3.835400104522705
      vertex 39.47159957885742 -84.6073989868164 3.835400104522705
    endloop
  endfacet
  facet normal 0 0 -1
    outer loop
      vertex -63.039161682128906 -84.6073989868164 3.835400104522705
      vertex -39.04774856567383 -75.28559875488281 3.835400104522705
      vertex -39.04774856567383 -84.6073989868164 3.835400104522705
    endloop
  endfacet
  facet normal 0 0 1
    outer loop
      vertex 10.272900581359863 -79.05584716796875 4.749800205230713
      vertex 10.272900581359863 -80.8479232788086 4.749800205230713
      vertex 39.47159957885742 -84.6073989868164 4.749800205230713
    endloop
  endfacet
  facet normal -0 0 1
    outer loop
      vertex -62.90678787231445 52.93360137939453 12.776200294494629
      vertex -58.724544525146484 -52.93360137939453 12.776200294494629
      vertex -58.724544525146484 52.93360137939453 12.776200294494629
    endloop
  endfacet
  facet normal 0.538399 -0 0.84269005
    outer loop
      vertex -43.577693939208984 -52.93360137939453 3.09879994392395
      vertex -43.577693939208984 42.59579849243164 3.09879994392395
      vertex -53.079261779785156 42.59579849243164 9.169400215148926
    endloop
  endfacet
  facet normal -0 0 -1
    outer loop
      vertex -43.577693939208984 42.59579849243164 3.09879994392395
      vertex -49.1497688293457 -52.93360137939453 3.09879994392395
      vertex -49.1497688293457 42.59579849243164 3.09879994392395
    endloop
  endfacet
  facet normal -0 0 -1
    outer loop
      vertex -59.6010856628418 52.93360137939453 9.776200294494629
      vertex -62.90678787231445 -52.93360137939453 9.776200294494629
      vertex -62.90678787231445 52.93360137939453 9.776200294494629
    endloop
  endfacet
  facet normal -1 0 0
    outer loop
      vertex -62.90678787231445 52.93360137939453 9.776200294494629
      vertex -62.90678787231445 -52.93360137939453 12.776200294494629
      vertex -62.90678787231445 52.93360137939453 12.776200294494629
    endloop
  endfacet
  facet normal 0 -1 0
    outer loop
      vertex -59.6010856628418 -52.93360137939453 9.776200294494629
      vertex -62.90678787231445 -52.93360137939453 12.776200294494629
      vertex -62.90678787231445 -52.93360137939453 9.776200294494629
    endloop
  endfacet
  facet normal 0 1 -0
    outer loop
      vertex -59.6010856628418 52.93360137939453 9.776200294494629
      vertex -62.90678787231445 52.93360137939453 12.776200294494629
      vertex -58.724544525146484 52.93360137939453 12.776200294494629
    endloop
  endfacet
  facet normal 0 0 1
    outer loop
      vertex -43.61180114746094 42.59579849243164 5.8673996925354
      vertex -40.690799713134766 42.59579849243164 5.8673996925354
      vertex -40.690799713134766 61.07453155517578 5.8673996925354
    endloop
  endfacet
  facet normal 0 -0 1
    outer loop
      vertex -43.61180114746094 72.26300048828125 5.8673996925354
      vertex -40.690799713134766 75.3826675415039 5.8673996925354
      vertex -56.777889251708984 75.3826675415039 5.8673996925354
    endloop
  endfacet
  facet normal 0 0 1
    outer loop
      vertex -18.59280014038086 61.07453155517578 5.8673996925354
      vertex -40.690799713134766 65.90345001220703 5.8673996925354
      vertex -40.690799713134766 61.07453155517578 5.8673996925354
    endloop
  endfacet
  facet normal 0 -1 -0
    outer loop
      vertex -18.59280014038086 61.07453155517578 5.8673996925354
      vertex -40.690799713134766 61.07453155517578 0
      vertex -18.59280014038086 61.07453155517578 0
    endloop
  endfacet
  facet normal 1 0 0
    outer loop
      vertex -18.59280014038086 65.90345001220703 5.8673996925354
      vertex -18.59280014038086 61.07453155517578 0
      vertex -18.59280014038086 65.90345001220703 0
    endloop
  endfacet
  facet normal 0 1 0
    outer loop
      vertex -40.690799713134766 65.90345001220703 5.8673996925354
      vertex -18.59280014038086 65.90345001220703 0
      vertex -40.690799713134766 65.90345001220703 0
    endloop
  endfacet
  facet normal 1 0 0
    outer loop
      vertex -40.690799713134766 61.07453155517578 5.8673996925354
      vertex -40.690799713134766 42.59579849243164 0
      vertex -40.690799713134766 61.07453155517578 0
    endloop
  endfacet
  facet normal 0 1 0
    outer loop
      vertex -56.777889251708984 75.3826675415039 5.8673996925354
      vertex -40.690799713134766 75.3826675415039 0
      vertex -56.777889251708984 75.3826675415039 0
    endloop
  endfacet
  facet normal 1 0 0
    outer loop
      vertex -43.61180114746094 72.26300048828125 9.169400215148926
      vertex -43.61180114746094 42.59579849243164 5.8673996925354
      vertex -43.61180114746094 72.26300048828125 5.8673996925354
    endloop
  endfacet
  facet normal 0 1 0
    outer loop
      vertex -56.777889251708984 72.26300048828125 9.169400215148926
      vertex -43.61180114746094 72.26300048828125 5.8673996925354
      vertex -56.777889251708984 72.26300048828125 5.8673996925354
    endloop
  endfacet
  facet normal 1 0 0
    outer loop
      vertex -40.690799713134766 75.3826675415039 5.8673996925354
      vertex -40.690799713134766 65.90345001220703 0
      vertex -40.690799713134766 75.3826675415039 0
    endloop
  endfacet
  facet normal 0 -1 0
    outer loop
      vertex -40.690799713134766 42.59579849243164 0
      vertex -43.577693939208984 42.59579849243164 3.09879994392395
      vertex -49.1497688293457 42.59579849243164 3.09879994392395
    endloop
  endfacet
endsolid ascii_stl
