solid ascii_stl
  facet normal 0 -0 -1
    outer loop
      vertex 284.0876159667969 213.23997497558594 -2.7711166694643907E-13
      vertex 284.0876159667969 -290.87255859375 -2.7711166694643907E-13
      vertex -262.94293212890625 -290.87255859375 -2.7711166694643907E-13
    endloop
  endfacet
  facet normal 0 0 1
    outer loop
      vertex -262.94293212890625 213.23997497558594 52.54880142211914
      vertex -262.94293212890625 -290.87255859375 52.54880142211914
      vertex 284.0876159667969 -290.87255859375 52.54880142211914
    endloop
  endfacet
  facet normal -1 0 0
    outer loop
      vertex -262.94293212890625 213.23997497558594 -2.7711166694643907E-13
      vertex -262.94293212890625 -290.87255859375 -2.7711166694643907E-13
      vertex -262.94293212890625 -290.87255859375 52.54880142211914
    endloop
  endfacet
  facet normal 0 -1 0
    outer loop
      vertex -262.94293212890625 -290.87255859375 -2.7711166694643907E-13
      vertex 284.0876159667969 -290.87255859375 -2.7711166694643907E-13
      vertex 284.0876159667969 -290.87255859375 52.54880142211914
    endloop
  endfacet
  facet normal 1 0 0
    outer loop
      vertex 284.0876159667969 -290.87255859375 -2.7711166694643907E-13
      vertex 284.0876159667969 213.23997497558594 -2.7711166694643907E-13
      vertex 284.0876159667969 213.23997497558594 52.54880142211914
    endloop
  endfacet
  facet normal 0 1 0
    outer loop
      vertex 284.0876159667969 213.23997497558594 -2.7711166694643907E-13
      vertex -262.94293212890625 213.23997497558594 -2.7711166694643907E-13
      vertex -262.94293212890625 213.23997497558594 52.54880142211914
    endloop
  endfacet
  facet normal -0 0 -1
    outer loop
      vertex 284.0876159667969 213.23997497558594 -2.7711166694643907E-13
      vertex -262.94293212890625 -290.87255859375 -2.7711166694643907E-13
      vertex -262.94293212890625 213.23997497558594 -2.7711166694643907E-13
    endloop
  endfacet
  facet normal -0 0 1
    outer loop
      vertex -262.94293212890625 213.23997497558594 52.54880142211914
      vertex 284.0876159667969 -290.87255859375 52.54880142211914
      vertex 284.0876159667969 213.23997497558594 52.54880142211914
    endloop
  endfacet
  facet normal -1 0 0
    outer loop
      vertex -262.94293212890625 213.23997497558594 -2.7711166694643907E-13
      vertex -262.94293212890625 -290.87255859375 52.54880142211914
      vertex -262.94293212890625 213.23997497558594 52.54880142211914
    endloop
  endfacet
  facet normal 0 -1 0
    outer loop
      vertex -262.94293212890625 -290.87255859375 -2.7711166694643907E-13
      vertex 284.0876159667969 -290.87255859375 52.54880142211914
      vertex -262.94293212890625 -290.87255859375 52.54880142211914
    endloop
  endfacet
  facet normal 1 0 0
    outer loop
      vertex 284.0876159667969 -290.87255859375 -2.7711166694643907E-13
      vertex 284.0876159667969 213.23997497558594 52.54880142211914
      vertex 284.0876159667969 -290.87255859375 52.54880142211914
    endloop
  endfacet
  facet normal 0 1 -0
    outer loop
      vertex 284.0876159667969 213.23997497558594 -2.7711166694643907E-13
      vertex -262.94293212890625 213.23997497558594 52.54880142211914
      vertex 284.0876159667969 213.23997497558594 52.54880142211914
    endloop
  endfacet
endsolid ascii_stl
